<svg width="337" height="280" viewBox="0 0 337 280" fill="none" xmlns="http://www.w3.org/2000/svg">
<path d="M44.21 167.061L34.21 180.061L24.09 167.921C22.68 166.301 20.72 165.921 19.27 167.481C18.6681 168.111 18.3397 168.954 18.3566 169.825C18.3734 170.696 18.7341 171.525 19.36 172.131L30.53 183.621C33.3 186.801 34.82 187.511 37.07 184.621C39.32 181.731 47.47 169.361 47.47 169.361L44.21 167.061Z" fill="#C1EAFE"/>
<path d="M45.6802 172.041L42.4502 170.021L45.4302 172.411L45.6802 172.041Z" fill="#AFDDEF"/>
<path d="M44.1501 169.391C44.0593 169.507 43.9266 169.583 43.7806 169.601C43.6347 169.62 43.4872 169.581 43.3701 169.491C43.2817 169.424 43.2154 169.332 43.1795 169.227C43.1436 169.122 43.1397 169.008 43.1685 168.901C43.1972 168.794 43.2572 168.697 43.3409 168.624C43.4245 168.551 43.528 168.505 43.6382 168.49C43.7484 168.476 43.8603 168.495 43.9597 168.545C44.059 168.595 44.1414 168.673 44.1963 168.769C44.2512 168.866 44.2761 168.977 44.2679 169.087C44.2597 169.198 44.2187 169.304 44.1501 169.391Z" fill="#AFDDEF"/>
<path d="M47.2098 169.181C48.2098 167.671 51.8498 163.341 51.6998 161.051C51.6062 160.163 51.3338 159.303 50.899 158.523C50.4642 157.743 49.876 157.058 49.1698 156.511C48.6998 156.391 47.8998 156.321 47.8098 157.191C47.7198 158.061 47.7398 160.901 46.9898 162.021C46.2398 163.141 46.0898 161.631 45.9898 160.771C45.8398 159.771 44.4598 159.701 44.5098 161.221C44.5598 162.741 45.1898 166.071 44.3198 167.151L47.2098 169.181Z" fill="#FFE0D7"/>
<path d="M49.2098 156.511C48.9821 156.449 48.7442 156.432 48.5098 156.461C49.0498 156.401 49.6098 156.801 50.3098 158.111C50.6346 158.81 50.8028 159.571 50.8028 160.341C50.8028 161.112 50.6346 161.873 50.3098 162.571C49.3357 164.567 48.1844 166.471 46.8698 168.261L44.3198 167.151L47.2398 169.151C48.2398 167.641 51.8798 163.311 51.7298 161.021C51.6336 160.139 51.3609 159.285 50.9279 158.51C50.495 157.736 49.9108 157.056 49.2098 156.511Z" fill="#FFD4CA"/>
<path d="M35.1 269.641C35.1149 269.562 35.1149 269.481 35.1 269.401C35.1 269.401 35.1 269.401 35.1 269.331C35.0668 269.24 35.0232 269.153 34.97 269.071C34.913 268.978 34.8459 268.891 34.77 268.811L34.71 268.751L34.41 268.461L34.06 268.161L34 268.111C33.52 267.741 32.93 267.331 32.31 266.881C31.1314 266.084 30.0681 265.128 29.15 264.041C28.15 262.671 27.29 261.441 26.7 260.491C26.5009 260.17 26.3238 259.836 26.17 259.491C29.11 240.961 29.17 220.201 27.43 198.221L11.03 196.971C10.24 200.711 4.91999 201.481 6.49999 212.441C6.66999 216.931 7.67997 236.741 7.66997 236.661C7.65997 236.581 4.41999 241.001 3.59999 245.381C3.14999 247.801 1.12999 266.601 1.12999 266.601C0.869992 267.771 0.409977 269.061 0.239977 269.601V269.781C0.0764542 270.736 0.173177 271.717 0.519976 272.621C0.739976 273.471 0.51999 275.621 0.65999 275.771C0.79999 275.921 1.71999 276.071 1.90999 275.771C1.90999 275.771 1.82999 272.771 2.77999 273.071C3.54194 273.375 4.23801 273.824 4.82997 274.391C5.53997 275.271 5.91997 276.801 7.04997 277.831C8.17997 278.861 12.77 280.011 14.64 278.681C14.727 278.612 14.8074 278.535 14.88 278.451V278.391C14.9288 278.318 14.9659 278.237 14.99 278.151C15.0049 278.072 15.0049 277.991 14.99 277.911C14.99 277.911 14.99 277.911 14.99 277.851C14.9627 277.756 14.9223 277.665 14.87 277.581C14.8169 277.485 14.7532 277.394 14.68 277.311V277.251L14.39 276.941C14.2838 276.831 14.1702 276.727 14.05 276.631L14 276.581C13.53 276.181 13 275.741 12.36 275.261C11.2198 274.412 10.2092 273.402 9.35997 272.261C8.53227 271.081 7.76465 269.859 7.05998 268.601C6.65952 267.874 6.37606 267.087 6.21999 266.271C12.9262 249.885 17.1396 232.586 18.72 214.951L21 234.411C21 234.411 19.58 238.091 19.62 239.411C19.66 240.731 20.69 260.191 20.69 260.191C20.51 260.941 20.31 261.601 20.21 261.941C20.2046 262.001 20.2046 262.062 20.21 262.121C20.0979 263.085 20.2428 264.062 20.63 264.951C20.88 265.791 20.79 267.951 20.9 268.091C21.01 268.231 21.97 268.341 22.15 268.041C22.15 268.041 21.94 265.041 22.9 265.301C23.6756 265.568 24.3922 265.982 25.01 266.521C25.76 267.371 26.2 268.881 27.38 269.861C28.56 270.841 33.19 271.781 35 270.371C35.0868 270.302 35.1641 270.221 35.23 270.131V270.071C35.2275 269.919 35.1825 269.77 35.1 269.641Z" fill="#021A6C"/>
<path d="M14.4998 167.771L11.0298 169.711C10.4256 170.053 9.92235 170.549 9.57114 171.147C9.21993 171.746 9.03319 172.427 9.02979 173.121C9.30316 178.161 10.4926 183.108 12.5398 187.721C13.6298 190.321 11.4098 194.721 10.1798 199.011C9.74978 200.511 15.6298 203.801 19.6798 202.901C22.5698 202.261 26.4898 199.901 27.3098 198.111C27.1298 194.911 26.6898 193.531 26.7598 191.111C26.8498 188.491 27.8198 185.561 27.6198 182.621C27.3198 175.101 27.4698 173.541 24.6198 170.331C20.9098 166.211 18.4198 165.551 18.4198 165.551L14.4998 167.771Z" fill="#DCF5FF"/>
<path d="M27.6601 183.361C23.6601 186.171 19.8601 187.881 17.0901 185.911C15.7919 185.018 14.8975 183.649 14.6001 182.101L27.6001 181.811L27.6601 183.361Z" fill="#C1EAFE"/>
<path d="M25.9599 171.611C28.1699 173.741 29.8599 176.081 29.2999 179.211C28.7399 182.341 23.1199 184.591 20.9699 185.341C18.3699 186.251 16.1799 184.631 14.9699 182.991C13.9699 181.661 13.6699 176.601 13.6699 176.601L24.5599 170.301L25.9599 171.611Z" fill="#DCF5FF"/>
<path d="M10.2101 199.011C9.94005 200.011 12.21 201.651 14.98 202.511C14.3181 201.742 13.8942 200.797 13.76 199.791C13.64 198.271 14.7 195.521 15.36 191.851C16.02 188.181 13.6 186.791 13.7 185.601C13.8 184.411 14.1601 175.601 14.1601 175.601L12.2701 183.131C12.2701 183.131 9.17004 175.321 9.04004 173.131C9.31341 178.171 10.5029 183.118 12.55 187.731C13.65 190.321 11.4301 194.741 10.2101 199.011Z" fill="#C1EAFE"/>
<path d="M24.3101 156.291C24.8401 154.871 25.3101 151.041 24.0001 150.031L22.8501 150.871L24.3101 156.291Z" fill="#000E4F"/>
<path d="M14.29 161.921L14.5601 168.631C15.5405 169.323 16.5661 169.947 17.6301 170.501C19.2201 171.291 20.3 170.501 20.3 169.041C20.3 167.581 20.14 163.641 20.14 163.641L14.29 161.921Z" fill="#FFD4CA"/>
<path d="M20.6502 147.441C21.73 148.172 22.6223 149.146 23.2547 150.286C23.8872 151.426 24.2419 152.699 24.2902 154.001V159.071C24.28 159.873 24.077 160.661 23.6984 161.368C23.3197 162.075 22.7766 162.681 22.1147 163.134C21.4528 163.587 20.6917 163.874 19.8955 163.971C19.0993 164.068 18.2915 163.972 17.5402 163.691L15.7102 162.981C15.2295 162.793 14.7954 162.502 14.438 162.129C14.0806 161.756 13.8084 161.31 13.6402 160.821L11.2102 153.761C10.8236 152.615 10.8279 151.373 11.2223 150.23C11.6168 149.086 12.3792 148.106 13.3902 147.441C14.5146 146.869 15.7584 146.57 17.0202 146.57C18.282 146.57 19.5258 146.869 20.6502 147.441Z" fill="#FFE0D7"/>
<path d="M14.35 163.361C14.1298 163.328 13.9125 163.278 13.7 163.211C12.1839 162.629 10.8742 161.611 9.93626 160.285C8.99833 158.959 8.47421 157.385 8.43004 155.761C8.37004 150.911 11.54 145.971 16.72 145.761C18.95 145.661 22.95 146.591 24.29 149.951C24.2879 150.164 24.2051 150.368 24.0585 150.522C23.9119 150.676 23.7123 150.769 23.5 150.781C21.58 150.981 22.09 152.431 17.37 154.591C16.3057 155.042 15.1655 155.286 14.01 155.311C13.9945 156.07 13.8939 156.825 13.71 157.561C13.71 157.731 13.36 158.411 13.18 158.161C12.87 157.721 12.94 156.301 12.79 155.491L12.32 156.991L13.64 160.831C13.7865 161.253 14.0103 161.643 14.3 161.981L14.35 163.361Z" fill="#000E4F"/>
<path d="M7.74023 145.341C9.47023 143.581 12.5402 143.571 13.7402 144.791C14.9402 146.011 13.2602 147.581 11.5302 149.341" fill="#000E4F"/>
<path d="M11.5702 149.341C9.83015 151.101 8.73017 152.341 7.50017 151.161C6.81765 150.332 6.46481 149.279 6.50908 148.206C6.55336 147.132 6.99163 146.112 7.74016 145.341" fill="#000E4F"/>
<path d="M12.8101 155.481C12.7282 155.327 12.6108 155.195 12.4676 155.095C12.3244 154.995 12.1595 154.931 11.9866 154.908C11.8137 154.884 11.6377 154.902 11.4731 154.96C11.3085 155.018 11.1601 155.115 11.0401 155.241C10.4501 155.751 10.0401 158.241 11.6701 159.011C12.6701 159.511 13.1801 159.071 13.1801 159.071L12.8101 155.481Z" fill="#FFD4CA"/>
<path d="M20.2701 167.291C20.4501 167.551 23.3601 174.221 23.6801 175.291C23.6801 175.291 16.1401 171.131 14.5601 168.671L20.2701 167.291Z" fill="#FFD4CA"/>
<path d="M11.78 187.441L14.54 173.731C14.82 171.611 13.86 169.911 11.74 169.641C11.2803 169.575 10.812 169.6 10.3619 169.715C9.91185 169.83 9.48888 170.032 9.11728 170.311C8.74568 170.59 8.43275 170.939 8.19641 171.339C7.96006 171.739 7.80496 172.181 7.73999 172.641L5.73999 187.931C5.66279 188.524 5.7643 189.126 6.03155 189.661C6.2988 190.195 6.7196 190.638 7.23999 190.931L22.7 199.921L24.97 196.591L11.78 187.441Z" fill="#EEFBFF"/>
<path d="M19.8901 198.311L21.9901 194.931L19.5601 198.111L19.8901 198.311Z" fill="#C1EAFE"/>
<path d="M22.6299 196.611C22.5415 196.544 22.4751 196.452 22.4392 196.347C22.4033 196.242 22.3995 196.128 22.4282 196.021C22.457 195.914 22.517 195.817 22.6006 195.744C22.6843 195.671 22.7878 195.625 22.898 195.61C23.0082 195.596 23.1201 195.615 23.2194 195.665C23.3188 195.715 23.4012 195.793 23.4561 195.889C23.511 195.986 23.5359 196.097 23.5276 196.207C23.5194 196.318 23.4784 196.424 23.4099 196.511C23.3658 196.57 23.3104 196.619 23.247 196.656C23.1836 196.692 23.1136 196.716 23.0409 196.725C22.9683 196.735 22.8945 196.73 22.8239 196.71C22.7533 196.69 22.6874 196.657 22.6299 196.611Z" fill="#C1EAFE"/>
<path d="M22.8599 199.661C24.3799 200.661 28.7399 204.261 31.0299 204.091C31.9168 203.991 32.7743 203.712 33.551 203.273C34.3277 202.833 35.0076 202.24 35.5499 201.531C35.6699 201.051 35.7299 200.261 34.8599 200.181C33.9899 200.101 31.1499 200.131 30.0199 199.391C29.6699 199.151 29.5699 198.981 29.6399 198.841C31.7699 197.551 32.3899 196.721 29.2799 197.011C27.6699 197.171 25.6699 197.361 24.8699 196.731L22.8599 199.661Z" fill="#FFE0D7"/>
<path d="M35.5501 201.531C35.6126 201.3 35.6296 201.059 35.6001 200.821C35.6501 201.371 35.2601 201.931 33.9501 202.641C33.2512 202.965 32.4903 203.132 31.7201 203.132C30.95 203.132 30.189 202.965 29.4901 202.641C27.491 201.673 25.5804 200.532 23.7801 199.231L24.8701 196.681L22.8701 199.611C24.3901 200.611 28.7501 204.211 31.0401 204.041C31.9215 203.946 32.7748 203.674 33.5494 203.243C34.3241 202.812 35.0044 202.23 35.5501 201.531Z" fill="#FFD4CA"/>
<g style="mix-blend-mode:multiply" opacity="0.4">
<path d="M218.47 46.7614L215.89 45.2814C215.516 45.0954 215.098 45.0157 214.682 45.0509C214.266 45.0862 213.867 45.2351 213.53 45.4814L62.4398 132.711C61.4839 133.338 60.6884 134.18 60.117 135.17C59.5456 136.16 59.2144 137.27 59.1498 138.411V263.801C59.1081 264.214 59.1792 264.63 59.3553 265.005C59.5314 265.38 59.806 265.7 60.1498 265.931L62.7898 267.431L213.55 178.431C214.508 177.807 215.305 176.965 215.877 175.975C216.448 174.985 216.778 173.873 216.84 172.731L218.47 46.7614Z" fill="#4FC9FC"/>
</g>
<g style="mix-blend-mode:multiply" opacity="0.4">
<path d="M216.21 47.0114L65.1001 134.231C64.142 134.856 63.3448 135.697 62.7731 136.688C62.2014 137.678 61.8715 138.79 61.8101 139.931V265.321C61.8101 267.411 63.2801 268.261 65.1001 267.221L216.21 179.991C217.168 179.367 217.965 178.525 218.537 177.535C219.109 176.545 219.439 175.433 219.5 174.291V48.9214C219.48 46.8114 218 45.9214 216.21 47.0114Z" fill="#4FC9FC"/>
</g>
<path d="M216.21 47.0114L183.21 66.4614L150.1 85.7814L83.7599 124.211L67.14 133.771C66.47 134.161 65.7 134.571 65.14 134.951C64.5477 135.382 64.0393 135.918 63.64 136.531C63.2036 137.141 62.8662 137.816 62.64 138.531C62.5355 138.877 62.4652 139.232 62.43 139.591C62.43 139.921 62.43 140.341 62.43 140.741V150.321L62.3199 188.661L62.15 226.991L61.87 265.331L61.59 226.991L61.42 188.661L61.21 150.311V140.731C61.21 140.321 61.21 139.951 61.21 139.481C61.2578 139.045 61.3414 138.614 61.46 138.191C61.7055 137.369 62.0765 136.59 62.56 135.881C63.0417 135.155 63.6476 134.518 64.35 134.001C65.11 133.501 65.75 133.171 66.45 132.751L83.0399 123.141L149.53 84.9214L182.82 65.9214L216.21 47.0114Z" fill="white"/>
<path opacity="0.1" d="M335.91 1.83143L333.33 0.361431C332.956 0.175407 332.538 0.0956777 332.122 0.130947C331.706 0.166216 331.308 0.315126 330.97 0.561428L151.81 104.061C150.853 104.687 150.057 105.529 149.485 106.519C148.914 107.509 148.583 108.62 148.52 109.761V268.481C148.479 268.895 148.55 269.312 148.726 269.689C148.902 270.066 149.176 270.388 149.52 270.621L152.16 272.131L330.97 166.921C331.927 166.296 332.724 165.454 333.295 164.464C333.867 163.474 334.197 162.363 334.26 161.221L335.91 1.83143Z" fill="#077AD9"/>
<path opacity="0.1" d="M333.62 2.08142L154.47 105.571C153.512 106.196 152.715 107.037 152.143 108.028C151.572 109.018 151.242 110.13 151.18 111.271V270.001C151.18 272.101 152.65 272.951 154.47 271.901L333.62 168.411C334.578 167.787 335.375 166.945 335.947 165.955C336.519 164.965 336.849 163.853 336.91 162.711V3.98141C336.91 1.92141 335.44 1.03142 333.62 2.08142Z" fill="#077AD9"/>
<path d="M333.62 2.08142L293.46 25.6414L253.21 49.0814L172.66 95.7914L162.57 101.601L157.57 104.501L155.03 105.921C154.236 106.345 153.551 106.948 153.03 107.681C152.505 108.408 152.119 109.225 151.89 110.091C151.789 110.514 151.739 110.947 151.74 111.381V118.661V130.301L151.67 176.921L151.49 223.471L151.21 270.001L150.9 223.441L150.69 176.921L150.6 130.361V111.411C150.595 110.879 150.656 110.349 150.78 109.831C151.041 108.813 151.492 107.853 152.11 107.001C152.715 106.132 153.512 105.414 154.44 104.901L156.96 103.441L161.96 100.521L172.03 94.6914L252.74 48.2414L293.14 25.1014L333.62 2.08142Z" fill="white"/>
<path opacity="0.5" d="M76.0298 200.731V248.321C76.0298 249.431 76.7998 249.881 77.7598 249.321L131.21 218.491C131.715 218.164 132.136 217.721 132.439 217.2C132.741 216.678 132.916 216.093 132.95 215.491V167.921C132.95 166.821 132.17 166.371 131.21 166.921L77.8098 197.761C77.2996 198.081 76.8723 198.516 76.5629 199.033C76.2535 199.549 76.0708 200.131 76.0298 200.731Z" fill="#007CD4"/>
<g style="mix-blend-mode:soft-light">
<path d="M82.1201 242.121V199.901L86.1801 197.561V239.771L82.1201 242.121Z" fill="#C1EAFE"/>
</g>
<path d="M82.1201 242.121V218.661L86.1801 216.321V239.771L82.1201 242.121Z" fill="#005ECF"/>
<g style="mix-blend-mode:soft-light">
<path d="M90.2402 237.431V195.211L94.3102 192.871V235.081L90.2402 237.431Z" fill="#C1EAFE"/>
</g>
<path d="M90.2402 237.431V232.741L94.3102 230.391V235.081L90.2402 237.431Z" fill="#005ECF"/>
<g style="mix-blend-mode:soft-light">
<path d="M98.3701 232.741V190.521L102.43 188.181V230.391L98.3701 232.741Z" fill="#C1EAFE"/>
</g>
<path d="M98.3701 232.741V218.661L102.43 216.321V230.391L98.3701 232.741Z" fill="#005ECF"/>
<g style="mix-blend-mode:soft-light">
<path d="M106.49 228.041V185.831L110.56 183.491V225.701L106.49 228.041Z" fill="#C1EAFE"/>
</g>
<path d="M106.49 228.041V195.211L110.56 192.871V225.701L106.49 228.041Z" fill="#005ECF"/>
<g style="mix-blend-mode:soft-light">
<path d="M114.62 223.351V181.141L118.68 178.791V221.011L114.62 223.351Z" fill="#C1EAFE"/>
</g>
<path d="M114.62 223.351V206.941L118.68 204.591V221.011L114.62 223.351Z" fill="#005ECF"/>
<g style="mix-blend-mode:soft-light">
<path d="M122.74 218.661V176.451L126.81 174.101V216.321L122.74 218.661Z" fill="#C1EAFE"/>
</g>
<path d="M122.74 218.661V181.141L126.81 178.801V216.321L122.74 218.661Z" fill="#005ECF"/>
<path opacity="0.5" d="M76.0298 144.441V192.041C76.0298 193.141 76.7998 193.591 77.7598 193.041L131.21 162.201C131.716 161.874 132.137 161.432 132.44 160.91C132.742 160.389 132.917 159.803 132.95 159.201V111.611C132.95 110.501 132.17 110.061 131.21 110.611L77.8098 141.441C77.2962 141.764 76.8669 142.205 76.5573 142.726C76.2478 143.248 76.067 143.836 76.0298 144.441Z" fill="#007CD4"/>
<path d="M105.88 148.831C100.15 152.151 95.5 160.201 95.5 166.831C95.5 173.461 100.15 176.141 105.89 172.831C111.63 169.521 116.27 161.461 116.27 154.831C116.27 148.201 111.62 145.521 105.88 148.831Z" fill="#005ECF"/>
<g style="mix-blend-mode:multiply" opacity="0.5">
<path d="M92.6501 149.361C88.0501 152.021 84.3101 158.491 84.3101 163.811C84.3101 169.131 88.0501 171.291 92.6601 168.631C97.2701 165.971 101 159.501 101 154.171C101 148.841 97.2601 146.691 92.6501 149.361Z" fill="#007CD4"/>
</g>
<g style="mix-blend-mode:soft-light">
<path d="M118.73 146.261C117.423 147.114 116.334 148.262 115.554 149.614C114.774 150.966 114.324 152.483 114.24 154.041C114.24 156.901 116.24 158.041 118.73 156.631C120.038 155.779 121.126 154.631 121.906 153.279C122.686 151.927 123.137 150.41 123.22 148.851C123.21 145.991 121.21 144.831 118.73 146.261Z" fill="#C1EAFE"/>
</g>
<g style="mix-blend-mode:multiply" opacity="0.5">
<path d="M128.83 116.651L96.3398 135.411V137.291L128.83 118.531V116.651Z" fill="#007CD4"/>
</g>
<g style="mix-blend-mode:multiply" opacity="0.5">
<path d="M128.83 121.341L100.4 137.751V138.721L128.83 122.311V121.341Z" fill="#007CD4"/>
</g>
<g style="mix-blend-mode:multiply" opacity="0.5">
<path d="M128.83 123.681L100.4 140.101V141.071L128.83 124.651V123.681Z" fill="#007CD4"/>
</g>
<g style="mix-blend-mode:multiply" opacity="0.5">
<path d="M128.83 126.031L100.4 142.441V143.411L128.83 127.001V126.031Z" fill="#007CD4"/>
</g>
<g style="mix-blend-mode:multiply" opacity="0.5">
<path d="M128.83 128.371L100.4 144.791V145.761L128.83 129.341V128.371Z" fill="#007CD4"/>
</g>
<path d="M171.5 109.281V170.921C171.5 172.031 172.28 172.481 173.23 171.921L264.93 119.101C265.434 118.772 265.853 118.329 266.153 117.808C266.454 117.287 266.628 116.702 266.66 116.101V54.4614C266.66 53.3614 265.88 52.9114 264.93 53.4614L173.21 106.281C172.71 106.613 172.295 107.057 171.998 107.578C171.701 108.099 171.53 108.682 171.5 109.281Z" fill="white"/>
<path d="M175.55 166.041C175.55 166.041 183.84 155.141 186.25 150.491C189.83 143.561 189.01 130.151 195.86 126.171C202.86 122.101 201.64 139.941 210.52 134.871C219.4 129.801 219.37 123.791 223.87 120.871C228.37 117.951 232.29 123.811 237.57 120.871C243.64 117.501 246.42 96.8714 252.69 93.4214C259.69 89.5714 262.47 108.421 262.47 108.421V115.931L175.55 166.041Z" fill="#008FF8"/>
<path d="M175.55 166.041C175.55 166.041 179.44 145.041 183.67 142.591C189.74 139.061 187.61 154.671 195.86 149.591C202.59 145.471 201.34 127.591 210.08 122.691C216.65 119.001 216.22 133.041 224.29 128.481C232.36 123.921 230.42 101.381 238.51 96.8314C246.6 92.2814 245.51 116.401 251.75 112.661C259.13 108.221 256.68 102.271 262.47 97.0514V115.821L175.55 166.041Z" fill="#005ECF"/>
<path d="M179.61 107.421V112.101L183.67 109.761V105.071L179.61 107.421Z" fill="#005ECF"/>
<path d="M187.73 104.131L224.29 83.0314V85.3714L187.73 106.481V104.131Z" fill="#9CC7F2"/>
<path d="M179.61 116.801V121.491L183.67 119.141V114.451L179.61 116.801Z" fill="#008FF8"/>
<path d="M187.73 113.511L224.29 92.4114V94.7514L187.73 115.861V113.511Z" fill="#9CC7F2"/>
<path d="M171.49 184.331V246.001C171.49 247.101 172.26 247.551 173.22 247.001L246.93 204.441C247.434 204.113 247.854 203.67 248.155 203.149C248.455 202.627 248.629 202.042 248.66 201.441V139.771C248.66 138.671 247.89 138.221 246.93 138.771L173.21 181.331C172.708 181.661 172.29 182.104 171.991 182.626C171.692 183.147 171.521 183.731 171.49 184.331Z" fill="white"/>
<path d="M179.61 233.941V187.031L182.41 185.421V232.321L179.61 233.941Z" fill="#005ECF"/>
<path d="M178.98 237.561L183.04 235.211V236.651L178.98 238.991V237.561Z" fill="#9CC7F2"/>
<path d="M184.94 230.861V193.331L187.73 191.721V229.251L184.94 230.861Z" fill="#008FF8"/>
<path d="M184.31 234.481L188.37 232.131V233.571L184.3 235.921L184.31 234.481Z" fill="#9CC7F2"/>
<path d="M193.06 226.171V185.411L195.86 183.801V224.551L193.06 226.171Z" fill="#005ECF"/>
<path d="M192.44 229.771L196.5 227.431V228.861L192.44 231.211V229.771Z" fill="#9CC7F2"/>
<path d="M198.39 223.091V189.371L201.19 187.761V221.481L198.39 223.091Z" fill="#008FF8"/>
<path d="M197.77 226.691L201.83 224.351V225.791L197.77 228.131V226.691Z" fill="#9CC7F2"/>
<path d="M206.51 218.411V199.611L209.31 198.001V216.801L206.51 218.411Z" fill="#005ECF"/>
<path d="M205.87 222.021L209.94 219.681V221.111L205.87 223.461V222.021Z" fill="#9CC7F2"/>
<path d="M211.84 215.341V193.991L214.64 192.381V213.721L211.84 215.341Z" fill="#008FF8"/>
<path d="M211.2 218.951L215.26 216.601V218.041L211.2 220.381V218.951Z" fill="#9CC7F2"/>
<path d="M219.97 210.641V184.911L222.76 183.301V209.021L219.97 210.641Z" fill="#005ECF"/>
<path d="M219.37 214.241L223.43 211.901V213.331L219.37 215.681V214.241Z" fill="#9CC7F2"/>
<path d="M225.29 207.561V190.831L228.09 189.211V205.951L225.29 207.561Z" fill="#008FF8"/>
<path d="M224.7 211.171L228.76 208.821V210.261L224.7 212.601V211.171Z" fill="#9CC7F2"/>
<path d="M233.42 202.871V195.561L236.21 193.951V201.261L233.42 202.871Z" fill="#005ECF"/>
<path d="M232.82 206.461L236.89 204.121V205.561L232.82 207.901V206.461Z" fill="#9CC7F2"/>
<path d="M238.75 199.801L238.74 196.161L241.54 194.551V198.181L238.75 199.801Z" fill="#008FF8"/>
<path d="M238.15 203.391L242.21 201.041V202.481L238.15 204.821V203.391Z" fill="#9CC7F2"/>
<path d="M220.23 161.921L217.18 163.681L217.19 167.201L220.23 165.441V161.921Z" fill="#005ECF"/>
<path d="M244.6 148.351L221.24 161.831V164.351L244.6 150.871V148.351Z" fill="#9CC7F2"/>
<path d="M220.23 167.791L217.18 169.551L217.19 173.071L220.23 171.311V167.791Z" fill="#008FF8"/>
<path d="M244.6 154.211L221.24 167.701V170.221L244.6 156.731V154.211Z" fill="#9CC7F2"/>
<path d="M256.79 135.091V196.761C256.79 197.861 257.56 198.311 258.52 197.761L313.66 165.921C314.164 165.592 314.583 165.149 314.883 164.628C315.184 164.107 315.358 163.522 315.39 162.921V101.261C315.39 100.151 314.61 99.7014 313.66 100.261L258.52 132.091C258.016 132.42 257.596 132.863 257.296 133.384C256.995 133.905 256.822 134.49 256.79 135.091Z" fill="white"/>
<path d="M263.9 133.691L260.85 135.441V138.961L263.9 137.201V133.691Z" fill="#005ECF"/>
<path d="M275.61 127.821L264.61 134.171V136.231L275.62 129.881L275.61 127.821Z" fill="#9CC7F2"/>
<path d="M281.16 123.711L278.11 125.471L278.12 128.991L281.16 127.231V123.711Z" fill="#008FF8"/>
<path d="M292.94 117.941L281.93 124.291V126.351L292.94 120.001V117.941Z" fill="#9CC7F2"/>
<path d="M298.43 113.731L295.38 115.491V119.011L298.43 117.251V113.731Z" fill="#00BDFF"/>
<path d="M310.26 108.061L299.26 114.411V116.471L310.26 110.121V108.061Z" fill="#9CC7F2"/>
<path d="M287.06 134.551C278.06 139.731 270.81 152.331 270.81 162.691C270.81 173.051 278.08 177.251 287.06 172.071C296.04 166.891 303.31 154.291 303.31 143.921C303.31 133.551 296.03 129.371 287.06 134.551ZM284.56 167.741C283.136 168.664 281.495 169.199 279.8 169.291C276.33 169.291 275.8 165.161 275.8 162.691C275.8 154.091 282.1 143.181 289.55 138.881C290.972 137.96 292.609 137.426 294.3 137.331C297.78 137.331 298.3 141.471 298.3 143.931C298.31 152.541 292.01 163.441 284.56 167.741Z" fill="#005ECF"/>
<path d="M289.56 138.921C290.981 138 292.619 137.466 294.31 137.371C296.47 137.371 297.49 138.971 297.95 140.771L301.58 136.591C298.91 131.981 293.42 130.921 287.06 134.591V140.651C287.848 140.012 288.684 139.434 289.56 138.921Z" fill="#00BDFF"/>
<path d="M301.58 136.551L297.95 140.731C298.199 141.78 298.32 142.854 298.31 143.931C298.298 144.936 298.215 145.939 298.06 146.931L303.31 143.931C303.39 141.362 302.793 138.817 301.58 136.551Z" fill="#008FF8"/>
<path d="M307.65 147.131L326.36 150.651C326.858 150.776 327.376 150.8 327.884 150.724C328.392 150.648 328.88 150.473 329.32 150.208C329.76 149.944 330.144 149.595 330.45 149.182C330.755 148.769 330.976 148.3 331.1 147.801C331.224 147.302 331.248 146.784 331.172 146.275C331.095 145.767 330.919 145.278 330.653 144.838C330.387 144.398 330.038 144.014 329.623 143.709C329.209 143.405 328.739 143.184 328.24 143.061L311.46 141.001L304.66 128.401L301.32 129.691L307.65 147.131Z" fill="#C1EAFE"/>
<path d="M302.12 131.901L305.33 130.601L302.22 132.171L302.12 131.901Z" fill="#AFDDEF"/>
<path d="M304.26 130.221C304.401 130.274 304.556 130.268 304.693 130.206C304.829 130.145 304.936 130.031 304.99 129.891C305.016 129.822 305.028 129.749 305.025 129.676C305.022 129.602 305.005 129.53 304.974 129.463C304.944 129.396 304.9 129.336 304.846 129.286C304.792 129.236 304.729 129.197 304.66 129.171C304.592 129.144 304.519 129.131 304.446 129.132C304.372 129.134 304.3 129.15 304.233 129.18C304.166 129.209 304.105 129.252 304.055 129.306C304.005 129.359 303.966 129.423 303.94 129.491C303.913 129.56 303.899 129.634 303.9 129.708C303.902 129.782 303.918 129.855 303.948 129.923C303.977 129.991 304.02 130.053 304.074 130.104C304.128 130.155 304.191 130.195 304.26 130.221Z" fill="#AFDDEF"/>
<path d="M304.66 128.401C304.23 126.631 303.66 121.401 301.87 119.911C301.149 119.372 300.327 118.985 299.452 118.773C298.577 118.562 297.668 118.531 296.78 118.681C296.36 118.951 295.78 119.481 296.35 120.141C296.92 120.801 299.06 122.731 299.35 124.061C299.64 125.391 298.45 124.451 297.72 123.961C296.99 123.471 295.89 124.361 297.05 125.371C298.21 126.381 300.64 128.151 301.3 129.691L304.66 128.401Z" fill="#FFE0D7"/>
<path d="M336.21 237.021C335.69 231.481 334.34 216.841 334.34 214.861C334.34 212.881 332.71 209.861 332.71 209.861C332.71 209.861 332.34 189.861 331.96 185.371C331.45 179.371 329.89 176.921 329.08 173.211L312.35 175.411C310.028 196.915 309.787 218.592 311.63 240.141C309.17 241.141 307.26 240.891 303.91 240.451C301.85 240.181 300.39 240.451 299.78 241.271C299.665 241.421 299.581 241.59 299.53 241.771C299.494 241.912 299.474 242.056 299.47 242.201C299.465 242.268 299.465 242.335 299.47 242.401C299.456 242.524 299.456 242.648 299.47 242.771C299.47 242.831 299.47 242.901 299.47 242.961C299.539 243.173 299.623 243.381 299.72 243.581C300.94 245.961 304.45 246.851 306.3 247.191C307.01 247.324 307.712 247.501 308.4 247.721C309.389 248.034 310.341 248.453 311.24 248.971C311.62 249.181 311.98 249.381 312.35 249.571C314.35 250.571 316.14 249.241 316.93 248.381C317.069 248.237 317.19 248.076 317.29 247.901C317.315 247.659 317.315 247.414 317.29 247.171C317.29 247.171 319.23 219.511 319.29 218.171C319.21 216.599 319.033 215.032 318.76 213.481L321.58 191.251C323.576 205.139 326.435 218.889 330.14 232.421C327.94 233.221 326.14 232.971 323.02 232.561C321.02 232.291 319.57 232.561 318.97 233.371C318.754 233.715 318.645 234.115 318.656 234.52C318.666 234.926 318.797 235.32 319.03 235.651C320.22 237.981 323.67 238.871 325.48 239.201C327.584 239.608 329.595 240.402 331.41 241.541C333.76 242.761 335.95 240.491 336.25 239.901C336.275 239.665 336.275 239.427 336.25 239.191C336.44 238.681 336.36 237.921 336.21 237.021Z" fill="#021A6C"/>
<path d="M317.6 121.981C316.525 122.713 315.638 123.687 315.009 124.825C314.38 125.962 314.028 127.232 313.98 128.531V135.251C313.979 135.905 314.128 136.55 314.417 137.136C314.706 137.722 315.125 138.234 315.644 138.632C316.162 139.029 316.766 139.302 317.407 139.428C318.048 139.555 318.709 139.532 319.34 139.361L322.94 138.361C323.597 138.183 324.192 137.824 324.656 137.326C325.121 136.828 325.437 136.21 325.57 135.541L327.02 128.271C327.405 127.128 327.401 125.889 327.009 124.747C326.616 123.606 325.857 122.626 324.85 121.961C323.725 121.394 322.482 121.1 321.223 121.103C319.963 121.106 318.722 121.407 317.6 121.981Z" fill="#FFE0D7"/>
<path d="M318.83 142.921L315.65 144.751C312.44 146.611 310.95 149.901 310.86 153.611C310.8 155.981 310.98 159.081 311.12 162.611C311.35 168.351 312.29 174.761 312.39 175.381C312.49 176.001 315.55 178.571 320.79 177.861C326.25 177.121 329.19 173.981 329.11 173.151C328.6 171.011 328.425 168.805 328.59 166.611C328.729 163.616 329.161 160.642 329.88 157.731C331.06 152.861 331.68 146.311 329.23 143.731C327.417 142.061 325.147 140.971 322.71 140.601L318.83 142.921Z" fill="#DCF5FF"/>
<path d="M324.49 136.641L324.16 142.081C323.96 144.081 322.99 145.351 321.16 144.711L318.85 143.921L318.43 139.631C318.376 139.07 318.526 138.508 318.853 138.049C319.18 137.59 319.662 137.264 320.21 137.131L324.49 136.641Z" fill="#FFD4CA"/>
<path d="M319.41 130.311C319.41 130.311 319.56 132.141 319.56 132.731C319.56 133.321 318.56 133.341 318.41 132.251C318.311 130.905 318.11 129.568 317.81 128.251C317.52 127.421 316.61 126.791 316.08 125.741C316.08 125.741 313.58 125.101 313.08 123.801C312.58 122.501 317.73 119.801 321.51 120.201C325.29 120.601 328.04 123.561 328.09 126.541C328.14 129.521 326.98 135.341 325.72 137.481C324.91 138.851 322.34 139.291 321.09 138.901C319.84 138.511 320.27 134.971 320.27 134.971L319.41 130.311Z" fill="#000E4F"/>
<path d="M319.69 134.861C320.86 135.531 322.02 133.801 322.09 132.601C322.16 131.401 322.09 130.201 321.19 129.601C320.29 129.001 319.41 130.271 319.41 130.271L319.69 134.861Z" fill="#FFD4CA"/>
<path d="M326.04 142.081L326.93 142.791C326.93 142.791 326.82 143.641 325.17 144.641C324.142 145.179 323.015 145.502 321.857 145.589C320.7 145.677 319.537 145.528 318.44 145.151C316.68 144.301 316.75 144.081 316.75 144.081L326.04 142.081Z" fill="#C1EAFE"/>
<path d="M324.26 139.971C325.241 140.499 326.076 141.262 326.69 142.191C326.69 142.191 326.77 144.021 323.04 144.921C320.91 145.389 318.683 145.092 316.75 144.081L315.82 144.611C315.82 144.611 317.21 140.881 318.53 141.181C319.865 141.52 321.264 141.52 322.6 141.181C324.31 140.831 324.26 139.971 324.26 139.971Z" fill="#DCF5FF"/>
<path d="M328.59 166.611C328.729 163.616 329.161 160.642 329.88 157.731C330.09 156.891 330.27 155.991 330.43 155.081C329.71 158.431 318.22 164.941 318.43 167.571C318.64 170.201 328.37 169.431 329.15 173.151C328.627 171.013 328.438 168.807 328.59 166.611Z" fill="#C1EAFE"/>
<path d="M296.39 155.271L315.39 153.951C315.907 153.945 316.418 153.836 316.892 153.631C317.367 153.426 317.796 153.129 318.155 152.757C318.514 152.385 318.795 151.945 318.983 151.464C319.171 150.982 319.262 150.468 319.25 149.951C319.237 148.916 318.814 147.928 318.073 147.205C317.333 146.481 316.335 146.081 315.3 146.091L298.54 148.331L288.78 137.921L285.87 140.011L296.39 155.271Z" fill="#EEFBFF"/>
<path d="M287.2 141.901L289.98 139.851L287.37 142.141L287.2 141.901Z" fill="#C1EAFE"/>
<path d="M288.85 139.741C288.924 139.75 288.998 139.743 289.069 139.723C289.14 139.702 289.207 139.667 289.264 139.621C289.322 139.574 289.37 139.517 289.405 139.452C289.44 139.387 289.462 139.315 289.47 139.241C289.484 139.093 289.44 138.945 289.346 138.83C289.253 138.714 289.118 138.639 288.97 138.621C288.821 138.606 288.673 138.649 288.556 138.743C288.44 138.837 288.366 138.973 288.35 139.121C288.334 139.27 288.378 139.419 288.471 139.535C288.565 139.651 288.701 139.726 288.85 139.741Z" fill="#C1EAFE"/>
<path d="M285.87 139.971C284.87 138.461 281.11 134.151 281.23 131.851C281.31 130.956 281.57 130.086 281.994 129.294C282.419 128.502 282.999 127.804 283.7 127.241C284.18 127.101 284.98 127.021 285.08 127.891C285.18 128.761 285.21 131.641 285.99 132.751C286.77 133.861 286.88 132.341 286.99 131.481C287.13 130.431 288.51 130.371 288.49 131.911C288.47 133.451 287.88 136.801 288.77 137.911L285.87 139.971Z" fill="#FFE0D7"/>
</svg>
