<svg width="20" height="21" viewBox="0 0 20 21" fill="none" xmlns="http://www.w3.org/2000/svg">
<path d="M16.833 3C17.0098 3 17.1797 3.07029 17.3047 3.19531C17.4297 3.32034 17.5 3.49018 17.5 3.66699V17.3359C17.4999 17.704 17.2011 18.002 16.833 18.002H10.667C10.299 18.0018 10.0011 17.7039 10.001 17.3359C10.001 16.9679 10.299 16.6691 10.667 16.6689H16.167V4.33301H10.667C10.299 4.33283 10.0011 4.035 10.001 3.66699C10.001 3.29891 10.2989 3.00018 10.667 3H16.833ZM7.68652 5.87109C7.94158 5.60589 8.36349 5.5978 8.62891 5.85254L12.9629 10.0195C13.0935 10.1452 13.1669 10.3187 13.167 10.5C13.167 10.6812 13.0935 10.8548 12.9629 10.9805L8.62891 15.1475C8.36349 15.4024 7.94163 15.3942 7.68652 15.1289C7.43151 14.8636 7.43992 14.4417 7.70508 14.1865L10.8457 11.167H2.83496C2.46692 11.1668 2.16895 10.8681 2.16895 10.5C2.16903 10.132 2.46697 9.83416 2.83496 9.83398H10.8457L7.70508 6.81445C7.43967 6.55926 7.43133 6.1365 7.68652 5.87109Z" fill="white"/>
</svg>
