<svg width="249" height="156" viewBox="0 0 249 156" fill="none" xmlns="http://www.w3.org/2000/svg">
<path d="M248.951 80.2919C249.031 82.3013 226.664 72.69 226.664 72.69C226.651 71.9338 226.114 71.1415 225.068 70.5765L121.17 9.19319C119.058 8.08868 115.697 8.214 113.648 9.47782L89.2217 24.8751C89.1453 23.0378 89.0689 21.2451 89.0052 19.6351C88.9924 19.2166 88.7058 18.7642 88.1092 18.4562C86.9309 17.8148 85.0689 17.8785 83.9097 18.6113L66.464 29.6225C65.9077 29.9729 65.5935 30.4254 65.6063 30.8778L65.9481 39.5354L16.5897 65.2026C15.56 65.8164 15.0845 66.63 15.1121 67.469L15.3986 75.0731L4.10155 69.0047C1.50285 67.624 0.122777 65.7124 0.0505905 63.7179C0.203455 68.0191 -0.110747 70.5255 0.0442409 74.7779C0.107935 76.7703 1.47947 78.7011 4.08879 80.0796L129.75 153.113C135.039 155.936 143.514 155.639 148.58 152.427L245.216 97.0147C247.793 95.4111 249.016 93.3401 248.953 91.3519C248.776 87.0635 249.123 84.5507 248.951 80.2919Z" fill="#E6E6E6"/>
<path d="M225.068 70.5765L121.171 9.19319C119.058 8.08868 115.697 8.214 113.648 9.47782L16.5876 65.2047C14.5516 66.4473 14.6238 68.4482 16.7065 69.5633L120.627 130.94C122.72 132.051 126.119 131.936 128.134 130.654L225.189 74.9627C227.229 73.701 227.195 71.7172 225.068 70.5765Z" fill="#5EA59D"/>
<path d="M16.7043 73.1508L66.742 102.705L72.3852 106.038L90.3298 116.637H90.332L92.6356 117.996L120.625 134.526C122.718 135.637 126.117 135.52 128.132 134.239L130.257 133.02L135.983 129.734L156.847 117.763L159.183 116.422L225.188 78.5481C227.229 77.2843 227.195 75.3047 225.07 74.1619L222.331 72.5434L216.687 69.2086L176.798 45.6421L171.157 42.3095L121.172 12.7786C119.062 11.6741 115.699 11.7994 113.65 13.0611L16.5896 68.788C14.5493 70.0349 14.6215 72.0378 16.7043 73.1508Z" fill="#8ACAC2"/>
<path d="M92.0371 84.7079L72.1752 96.1821L59.5767 88.9051L79.4406 77.4308L92.0371 84.7079Z" fill="#5EA59D"/>
<path d="M73.8906 73.1849L54.0267 84.659L37.2795 74.9839L57.1434 63.5118L73.8906 73.1849Z" fill="#5EA59D"/>
<path d="M118.319 69.5272L98.455 81.0014L85.8585 73.7243L105.722 62.2501L118.319 69.5272Z" fill="#5EA59D"/>
<path d="M162.299 80.1113L142.435 68.6393L155.032 61.3622L174.896 72.8365L162.299 80.1113Z" fill="#5EA59D"/>
<path d="M131.009 121.773L111.147 110.299L123.744 103.021L143.608 114.496L131.009 121.773Z" fill="#5EA59D"/>
<path d="M179.922 69.9329L160.06 58.4587L172.656 51.1838L192.518 62.6558L179.922 69.9329Z" fill="#5EA59D"/>
<path d="M102.344 60.3002L82.4805 71.7723L69.884 64.4973L89.7459 53.0232L102.344 60.3002Z" fill="#5EA59D"/>
<path d="M98.6633 32.1033L88.3258 38.0761L81.7675 34.2889L92.107 28.316L98.6633 32.1033Z" fill="#5EA59D"/>
<path d="M83.9563 48.8112L37.963 75.379L25.3644 68.102L71.3598 41.5342L83.9563 48.8112Z" fill="#5EA59D"/>
<path d="M142.969 82.8982L96.9733 109.464L84.3768 102.189L130.372 75.6212L142.969 82.8982Z" fill="#5EA59D"/>
<path d="M160.075 45.4084L131.941 61.6575L111.846 50.0495L139.977 33.8004L160.075 45.4084Z" fill="#5EA59D"/>
<path d="M66.7419 102.705L72.3852 106.04L131.115 72.0676L136.82 68.7689L176.796 45.6463L171.153 42.3137L167.909 44.1893L165.582 45.538L131.113 65.4723L125.408 68.7731L99.6227 83.6883L97.2958 85.035L66.7419 102.705Z" fill="#5EA59D"/>
<path d="M173.431 96.5113L71.4192 37.5856L77.1261 34.289L179.138 93.2126L173.431 96.5113Z" fill="#5EA59D"/>
<path d="M96.8733 113.742L98.4211 114.636L130.255 133.024L135.981 129.736L104.111 111.329L102.58 110.445L96.8733 113.742Z" fill="#5EA59D"/>
<path d="M171.435 95.3494L173.435 96.5049L177.142 98.648L222.329 72.5476L216.685 69.2128L195.588 81.3985L193.259 82.7431L177.138 92.0571L171.435 95.3494Z" fill="#5EA59D"/>
<path d="M61.3047 64.2468L77.3555 73.5162L79.6867 74.8628L82.0242 73.5205L79.6931 72.1759L63.6359 62.9001L61.3047 64.2468Z" fill="#5EA59D"/>
<path d="M89.3659 80.3832C90.1239 79.9626 90.8797 79.5294 91.6143 79.0621L102.742 85.4895L100.412 86.8362L89.3043 80.4193C89.3234 80.4066 89.3447 80.3938 89.3659 80.3832Z" fill="#5EA59D"/>
<path d="M150.733 68.3058L174.595 82.0888L176.926 80.7443L153.064 66.9612L150.733 68.3058Z" fill="#5EA59D"/>
<path d="M184.609 75.0583L199.486 83.6522L197.157 84.9989L182.312 76.4241C183.106 76.0184 183.877 75.5659 184.609 75.0583Z" fill="#5EA59D"/>
<path d="M169.053 57.7237L192.915 71.5068L195.244 70.1623L171.382 56.3792L169.053 57.7237Z" fill="#5EA59D"/>
<path d="M64.5978 65.0348L94.107 47.9892L91.778 46.6446L62.2666 63.6903L64.5978 65.0348Z" fill="#5EA59D"/>
<path d="M90.3341 116.639L92.6355 117.998L98.4211 114.636L104.111 111.329L124.839 99.2789L127.16 97.9302L151.45 83.8137L152.057 83.4589L149.731 82.1144L149.121 82.4691L90.3341 116.639Z" fill="#5EA59D"/>
<path d="M124.092 98.8499L124.839 99.2789L156.845 117.767L159.181 116.427L127.16 97.9302L126.421 97.5032L124.092 98.8499Z" fill="#5EA59D"/>
<path d="M167.354 46.5597L116.4 17.1286L118.729 15.782L169.684 45.2151L167.354 46.5597Z" fill="#5EA59D"/>
<path d="M165.431 88.5927L202.008 67.4668L199.677 66.1201L163.102 87.2482L165.431 88.5927Z" fill="#5EA59D"/>
<path d="M48.8994 89.8247L51.2306 91.1714L79.6868 74.8628L82.0244 73.5204L79.6932 72.1759L77.3556 73.5161L48.8994 89.8247Z" fill="#5EA59D"/>
<path d="M121.053 29.7329C115.93 26.7741 107.627 26.7741 102.504 29.7329C97.3806 32.6917 97.3806 37.4878 102.504 40.4488C107.627 43.4076 115.93 43.4076 121.053 40.4488C126.177 37.49 126.177 32.6917 121.053 29.7329Z" fill="#5EA59D"/>
<path d="M159.3 93.9581C154.177 90.9993 145.873 90.9993 140.75 93.9581C135.627 96.9169 135.627 101.713 140.75 104.672C145.873 107.631 154.177 107.631 159.3 104.672C164.423 101.713 164.423 96.9169 159.3 93.9581Z" fill="#5EA59D"/>
<path d="M100.385 2.64051C105.489 -0.590194 113.945 -0.898192 119.228 1.94805L244.889 74.9755C250.182 77.8366 250.307 82.741 245.229 85.9441L148.591 141.374C143.487 144.592 135.049 144.878 129.737 142.066L4.09729 69.0047C-1.15744 66.2094 -1.31241 61.2752 3.74275 58.053L100.385 2.64051ZM225.068 70.5766L121.17 9.19322C119.058 8.08871 115.697 8.21404 113.648 9.47785L16.5876 65.2048C14.5515 66.4473 14.6237 68.4482 16.7065 69.5633L120.627 130.94C122.72 132.051 126.119 131.936 128.134 130.654L225.189 74.9627C227.229 73.701 227.195 71.7172 225.068 70.5766Z" fill="white"/>
<path d="M224.647 107.718L235.354 101.01V93.4463L224.647 100.154V107.718Z" fill="#F8F9FC"/>
<path d="M233.174 99.7462L225.087 104.942V106.957L234.915 100.755V100.751L233.174 99.7462Z" fill="#4F4F4F"/>
<path d="M225.085 100.407V104.944L233.172 99.7483V95.2135L232.737 95.462L225.085 100.407Z" fill="#303030"/>
<path d="M225.085 101.089V104.298L232.737 99.3512V96.1439L225.085 101.089Z" fill="#181A1D"/>
<path d="M234.915 98.7416V94.2067L233.174 95.2114V99.7462L234.915 100.751V98.7416Z" fill="#404040"/>
<path d="M245.337 91.6089C245.337 93.9284 243.927 96.6196 242.191 97.6221C240.454 98.6268 239.044 97.5605 239.044 95.2432C239.044 92.9258 240.452 90.2325 242.191 89.2278C243.927 88.2253 245.337 89.2894 245.337 91.6089Z" fill="#303030"/>
<path d="M239.403 95.908C241.142 94.9055 242.549 92.2121 242.549 89.8948C242.549 89.6101 242.526 89.3446 242.486 89.0982C244.082 88.376 245.337 89.4254 245.337 91.6089C245.337 93.9284 243.927 96.6195 242.19 97.6221C240.668 98.5036 239.396 97.792 239.106 96.0397C239.205 95.9951 239.301 95.9675 239.403 95.908Z" fill="#4F4F4F"/>
<path d="M241.318 97.1379C243.055 96.1353 244.465 93.442 244.465 91.1246C244.465 90.12 244.189 89.3681 243.745 88.9008C244.692 89.0771 245.337 90.0499 245.337 91.6089C245.337 93.9284 243.927 96.6196 242.191 97.6221C241.208 98.1914 240.339 98.0788 239.762 97.4671C240.22 97.552 240.749 97.4671 241.318 97.1379Z" fill="#EBEBEB"/>
<path d="M182.032 116.677C184.616 116.76 187.176 116.169 189.061 115.056L200.494 108.372C202.505 107.193 203.651 105.481 203.641 103.676C203.63 101.868 202.52 100.243 200.516 99.1005C198.964 98.1808 196.889 97.6264 194.698 97.5542C192.125 97.4714 189.575 98.0597 187.707 99.1664L176.238 105.902C174.268 107.032 173.125 108.714 173.119 110.507C173.113 112.299 174.24 113.99 176.212 115.141C177.792 116.063 179.86 116.607 182.032 116.677Z" fill="#E6E6E6"/>
<path d="M199.705 107.019L188.263 113.708C185.14 115.556 180.104 115.594 176.998 113.791C173.905 111.983 173.905 109.047 177.028 107.255L188.501 100.517C191.618 98.6693 196.673 98.646 199.737 100.462C202.875 102.25 202.843 105.18 199.705 107.019Z" fill="white"/>
<path d="M34.6216 97.0912L19.1036 88.0469L19.2077 82.0592L34.7362 91.1035L34.6216 97.0912Z" fill="#E4EAEE"/>
<path d="M34.7361 91.1034L19.2076 82.0592L21.56 80.7062L37.0779 89.7611L34.7361 91.1034Z" fill="white"/>
<path d="M37.0779 89.761L36.9633 95.7488L34.6215 97.0912L34.7361 91.1034L37.0779 89.761Z" fill="#D0D8DD"/>
<path d="M14.73 85.532L7.96155 81.6428L8.0656 75.6551L14.8447 79.5442L14.73 85.532Z" fill="#E4EAEE"/>
<path d="M14.8447 79.5443L8.06555 75.6551L10.4179 74.3042L17.1865 78.2019L14.8447 79.5443Z" fill="white"/>
<path d="M17.1864 78.202L17.0739 84.1897L14.7299 85.5321L14.8446 79.5443L17.1864 78.202Z" fill="#D0D8DD"/>
<path d="M6.65783 62.7345C6.68755 63.189 7.00601 63.6436 7.58138 63.9771C8.85313 64.7035 10.8999 64.7035 12.1737 63.9771C12.4774 63.8093 12.7024 63.5969 12.8552 63.3866C13.3563 62.6899 13.127 61.8849 12.1737 61.3241C10.8999 60.5977 8.85525 60.5977 7.58138 61.3241C6.91472 61.7022 6.59626 62.2184 6.65783 62.7345Z" fill="#4F4F4F"/>
<path d="M6.65778 62.7345C6.6875 63.1891 7.00596 63.6436 7.58133 63.9771C8.85308 64.7035 10.8998 64.7035 12.1737 63.9771C12.4773 63.8093 12.7023 63.5969 12.8552 63.3866C12.8403 62.9469 12.5219 62.4924 11.9147 62.1419C10.6578 61.4155 8.59622 61.4155 7.33933 62.1419C7.03572 62.3097 6.80852 62.5221 6.65778 62.7345Z" fill="#16181D"/>
<path d="M49.9268 38.4075C50.0393 38.6539 50.2899 38.9046 50.6317 39.1127C51.7633 39.7988 53.6593 39.7818 54.8164 39.0894L72.6315 28.6538C72.9415 28.4669 73.175 28.246 73.3024 28.006C73.6846 27.3794 73.4638 26.6764 72.6167 26.1815C71.4702 25.5081 69.6039 25.5123 68.415 26.2196L50.6445 36.687C49.8271 37.1628 49.5808 37.8213 49.9268 38.4075Z" fill="#E1E3EA"/>
<path d="M49.9269 38.4076C50.0395 38.654 50.29 38.9046 50.6318 39.1128C51.7634 39.7988 53.6594 39.7819 54.8165 39.0894L72.6316 28.6539C72.9416 28.4669 73.1751 28.2461 73.3025 28.006C73.19 27.7299 72.9395 27.4793 72.5828 27.2712C71.4363 26.6 69.5701 26.602 68.3812 27.3093L50.6106 37.7767C50.2879 37.9637 50.0543 38.1697 49.9269 38.4076Z" fill="#E6E6E6"/>
<path d="M41.7763 39.7798L46.0013 37.3243C44.6361 38.1187 42.7444 38.0062 40.6574 36.7997L36.4324 39.2552C38.5194 40.4616 40.4111 40.5742 41.7763 39.7798Z" fill="#A9650B"/>
<path d="M36.4323 39.2552L40.6573 36.7997C36.5129 34.4059 33.1563 28.6008 33.169 23.8366C33.1754 21.4491 34.0247 19.7732 35.3898 19.0001L31.1648 21.4576C29.7996 22.2286 28.9504 23.9045 28.944 26.2941C28.9313 31.0583 32.2879 36.8613 36.4323 39.2552Z" fill="#A9650B"/>
<path d="M36.5023 14.9389L40.7273 12.4834C37.0479 10.3806 33.7444 10.1916 31.3559 11.5807L27.1309 14.0361C29.5194 12.647 32.823 12.836 36.5023 14.9389Z" fill="#A9650B"/>
<path d="M49.6679 37.8341C49.6679 53.0551 36.7891 58.599 36.4876 58.7264C36.477 58.7009 36.4324 58.6371 36.3793 58.5373C35.1267 56.5301 23.269 37.3116 23.2457 22.7426C23.2202 14.2294 29.1012 10.7077 36.5046 14.9388C43.7572 19.1487 49.6424 29.3591 49.6679 37.8341ZM36.4324 39.2551C40.5767 41.6489 43.9504 39.7309 43.9631 34.9688C43.978 30.1981 40.6255 24.3909 36.4812 21.9971C34.409 20.7991 32.5322 20.6844 31.1649 21.4576C29.7997 22.2286 28.9505 23.9045 28.9441 26.294C28.9314 31.0583 32.2881 36.8613 36.4324 39.2551Z" fill="#F49110"/>
<path d="M38.1181 57.8832L42.3431 55.4278C45.8739 53.3759 53.8929 47.3903 53.8929 35.3788C53.8674 26.9037 47.9821 16.6934 40.7274 12.4835L36.5024 14.9389C43.7571 19.1488 49.6424 29.3592 49.6678 37.8342C49.6678 49.8458 41.6489 55.8314 38.1181 57.8832Z" fill="#A9650B"/>
<path d="M26.6362 25.0133C26.6362 28.1187 27.7253 31.5618 29.4918 34.6141C31.2497 37.6706 33.6934 40.3385 36.3813 41.8911C41.7634 45.0008 46.1264 42.4795 46.1264 36.2709C46.1264 30.0537 41.7634 22.4942 36.3813 19.3867C30.9992 16.277 26.6362 18.7962 26.6362 25.0133ZM28.9058 26.3239C28.9058 23.9364 29.7444 22.2605 31.0969 21.4768C32.4514 20.7036 34.3219 20.8162 36.3813 22.0056C40.5065 24.3888 43.8568 30.1854 43.8568 34.9603C43.8568 39.7246 40.5065 41.6532 36.3813 39.27C32.2561 36.8868 28.9058 31.0903 28.9058 26.3239Z" fill="#FEBA11"/>
<path d="M32.4706 66.0077C32.4706 62.9044 34.9844 60.3895 38.0863 60.3895C41.186 60.3895 43.7019 62.9044 43.7019 66.0077C43.7019 69.1109 41.1882 71.6258 38.0863 71.6258C34.9844 71.6258 32.4706 69.1109 32.4706 66.0077Z" fill="#FA5846"/>
<path d="M41.7763 39.7798L46.0013 37.3243C44.6361 38.1187 42.7444 38.0062 40.6574 36.7997L36.4324 39.2552C38.5194 40.4616 40.4111 40.5742 41.7763 39.7798Z" fill="#D93625"/>
<path d="M36.4323 39.2552L40.6573 36.7997C36.5129 34.4059 33.1563 28.6008 33.169 23.8366C33.1754 21.4491 34.0247 19.7732 35.3898 19.0001L31.1648 21.4576C29.7996 22.2286 28.9504 23.9045 28.944 26.2941C28.9313 31.0583 32.2879 36.8613 36.4323 39.2552Z" fill="#D93625"/>
<path d="M36.5023 14.9389L40.7273 12.4834C37.0479 10.3806 33.7444 10.1916 31.3559 11.5807L27.1309 14.0361C29.5194 12.647 32.823 12.836 36.5023 14.9389Z" fill="#D93625"/>
<path d="M49.6679 37.8341C49.6679 53.0551 36.7891 58.599 36.4876 58.7264C36.477 58.7009 36.4324 58.6371 36.3793 58.5373C35.1267 56.5301 23.269 37.3116 23.2457 22.7426C23.2202 14.2294 29.1012 10.7077 36.5046 14.9388C43.7572 19.1487 49.6424 29.3591 49.6679 37.8341ZM36.4324 39.2551C40.5767 41.6489 43.9504 39.7309 43.9631 34.9688C43.978 30.1981 40.6255 24.3909 36.4812 21.9971C34.409 20.7991 32.5322 20.6844 31.1649 21.4576C29.7997 22.2286 28.9505 23.9045 28.9441 26.294C28.9314 31.0583 32.2881 36.8613 36.4324 39.2551Z" fill="#FA5846"/>
<path d="M38.1181 57.8832L42.3431 55.4278C45.8739 53.3759 53.8929 47.3903 53.8929 35.3788C53.8674 26.9037 47.9821 16.6934 40.7274 12.4835L36.5024 14.9389C43.7571 19.1488 49.6424 29.3592 49.6678 37.8342C49.6678 49.8458 41.6489 55.8314 38.1181 57.8832Z" fill="#D93625"/>
<path d="M36.2159 66.3772C37.3849 66.3772 38.3327 65.4291 38.3327 64.2595C38.3327 63.0899 37.3849 62.1418 36.2159 62.1418C35.0468 62.1418 34.0992 63.0899 34.0992 64.2595C34.0992 65.4291 35.0468 66.3772 36.2159 66.3772Z" fill="#FA998F"/>
<path d="M151.771 113.209C151.856 113.209 151.939 113.164 151.983 113.085C152.051 112.969 152.011 112.818 151.894 112.752L151.4 112.467C151.283 112.399 151.132 112.44 151.064 112.559C150.996 112.676 151.037 112.826 151.153 112.894L151.648 113.179C151.688 113.2 151.731 113.209 151.771 113.209Z" fill="#F7F7FB"/>
<path d="M150.2 112.342L149.245 111.792C149.128 111.724 149.088 111.575 149.153 111.456C149.221 111.339 149.372 111.299 149.489 111.367L150.444 111.917C150.561 111.985 150.601 112.134 150.534 112.253C150.489 112.331 150.406 112.376 150.321 112.376C150.281 112.374 150.238 112.363 150.2 112.342ZM148.292 111.242L147.338 110.692C147.221 110.624 147.181 110.475 147.247 110.356C147.315 110.239 147.463 110.199 147.582 110.267L148.536 110.817C148.652 110.885 148.693 111.034 148.627 111.153C148.582 111.231 148.5 111.276 148.415 111.276C148.372 111.274 148.33 111.265 148.292 111.242ZM146.383 110.141L145.427 109.591C145.311 109.523 145.27 109.375 145.338 109.256C145.406 109.139 145.555 109.099 145.672 109.167L146.627 109.717C146.744 109.785 146.784 109.933 146.716 110.052C146.672 110.131 146.589 110.175 146.504 110.175C146.461 110.175 146.421 110.165 146.383 110.141ZM144.472 109.041L143.517 108.491C143.4 108.423 143.359 108.274 143.427 108.155C143.495 108.039 143.644 107.998 143.763 108.066L144.718 108.616C144.835 108.684 144.875 108.833 144.807 108.952C144.763 109.031 144.68 109.075 144.595 109.075C144.553 109.075 144.51 109.065 144.472 109.041ZM142.563 107.943L141.608 107.393C141.491 107.325 141.451 107.176 141.519 107.057C141.587 106.938 141.735 106.9 141.854 106.968L142.81 107.518C142.926 107.586 142.967 107.735 142.899 107.854C142.854 107.932 142.771 107.977 142.686 107.977C142.644 107.975 142.602 107.964 142.563 107.943ZM140.655 106.843L139.699 106.293C139.582 106.225 139.542 106.076 139.61 105.957C139.678 105.84 139.827 105.8 139.946 105.868L140.901 106.418C141.018 106.486 141.058 106.635 140.99 106.754C140.945 106.832 140.863 106.877 140.778 106.877C140.735 106.875 140.693 106.864 140.655 106.843ZM138.746 105.743L137.791 105.192C137.674 105.124 137.633 104.976 137.701 104.857C137.769 104.74 137.918 104.7 138.037 104.768L138.992 105.318C139.109 105.386 139.149 105.534 139.081 105.653C139.037 105.732 138.954 105.777 138.869 105.777C138.827 105.774 138.784 105.764 138.746 105.743ZM136.837 104.642L135.882 104.092C135.765 104.024 135.725 103.875 135.793 103.756C135.861 103.64 136.011 103.599 136.128 103.667L137.081 104.217C137.198 104.285 137.239 104.434 137.173 104.553C137.128 104.632 137.045 104.676 136.96 104.676C136.918 104.674 136.875 104.664 136.837 104.642ZM134.926 103.542L133.971 102.992C133.854 102.924 133.814 102.775 133.882 102.656C133.95 102.539 134.098 102.499 134.217 102.567L135.173 103.117C135.289 103.185 135.33 103.334 135.262 103.453C135.217 103.531 135.135 103.576 135.05 103.576C135.007 103.574 134.967 103.565 134.926 103.542ZM133.018 102.442L132.064 101.892C131.948 101.824 131.907 101.675 131.973 101.556C132.041 101.439 132.192 101.399 132.309 101.465L133.264 102.015C133.381 102.083 133.421 102.231 133.353 102.35C133.309 102.429 133.226 102.474 133.141 102.474C133.098 102.476 133.056 102.465 133.018 102.442ZM131.109 101.341L130.154 100.791C130.037 100.723 129.997 100.575 130.064 100.456C130.132 100.339 130.281 100.299 130.4 100.367L131.353 100.917C131.47 100.985 131.51 101.133 131.445 101.252C131.4 101.331 131.317 101.375 131.232 101.375C131.19 101.375 131.147 101.365 131.109 101.341ZM129.2 100.243L128.245 99.6932C128.128 99.6252 128.088 99.4765 128.156 99.3576C128.224 99.2408 128.372 99.2004 128.491 99.2684L129.447 99.8185C129.563 99.8865 129.604 100.035 129.536 100.154C129.491 100.233 129.408 100.277 129.323 100.277C129.281 100.275 129.239 100.265 129.2 100.243ZM127.292 99.143L126.338 98.5929C126.222 98.5249 126.181 98.3763 126.249 98.2573C126.317 98.1405 126.466 98.1001 126.585 98.1681L127.54 98.7183C127.657 98.7862 127.697 98.9349 127.629 99.0538C127.585 99.1324 127.502 99.1771 127.417 99.1771C127.372 99.1749 127.33 99.1643 127.292 99.143Z" fill="#F7F7FB"/>
<path d="M125.504 98.0747C125.589 98.0747 125.672 98.0301 125.716 97.9515C125.784 97.8346 125.744 97.6839 125.627 97.6159L125.495 97.5395L125.627 97.4608C125.744 97.3907 125.782 97.2421 125.712 97.1253C125.642 97.0084 125.493 96.9702 125.377 97.0403L124.886 97.3334C124.812 97.378 124.765 97.4587 124.767 97.5458C124.767 97.6329 124.814 97.7136 124.89 97.7561L125.385 98.0407C125.421 98.0641 125.464 98.0747 125.504 98.0747Z" fill="#F7F7FB"/>
<path d="M126.253 96.8045C126.183 96.6876 126.221 96.5368 126.338 96.4688L127.302 95.8953C127.419 95.8274 127.57 95.8656 127.638 95.9803C127.708 96.0971 127.667 96.2458 127.553 96.3159L126.589 96.8873C126.551 96.9107 126.506 96.9213 126.464 96.9213C126.379 96.9255 126.298 96.883 126.253 96.8045ZM128.179 95.6596C128.109 95.5428 128.147 95.394 128.264 95.3239L129.228 94.7505C129.345 94.6825 129.495 94.7186 129.563 94.8354C129.633 94.9523 129.593 95.1031 129.478 95.171L128.514 95.7424C128.476 95.7658 128.432 95.7764 128.389 95.7764C128.304 95.7806 128.224 95.7382 128.179 95.6596ZM130.105 94.5168C130.035 94.4 130.073 94.2492 130.19 94.1812L131.153 93.6099C131.27 93.5398 131.419 93.5801 131.489 93.6948C131.559 93.8116 131.519 93.9625 131.404 94.0304L130.442 94.6018C130.404 94.6251 130.359 94.6358 130.317 94.6358C130.23 94.6358 130.149 94.5933 130.105 94.5168ZM132.028 93.372C131.958 93.2551 131.998 93.1043 132.113 93.0363L133.075 92.4629C133.192 92.3928 133.342 92.4331 133.41 92.5478C133.48 92.6647 133.442 92.8133 133.325 92.8834L132.362 93.4548C132.323 93.4782 132.279 93.4888 132.236 93.4888C132.156 93.4909 132.075 93.4484 132.028 93.372ZM133.956 92.2271C133.886 92.1103 133.924 91.9594 134.041 91.8915L135.005 91.3201C135.122 91.25 135.272 91.2883 135.34 91.4051C135.41 91.5219 135.372 91.6727 135.255 91.7407L134.294 92.3142C134.255 92.3375 134.211 92.3482 134.168 92.3482C134.083 92.3461 134.001 92.3036 133.956 92.2271ZM135.882 91.0822C135.812 90.9654 135.85 90.8146 135.967 90.7466L136.928 90.1752C137.045 90.1052 137.194 90.1455 137.264 90.2602C137.334 90.3771 137.294 90.5278 137.179 90.5958L136.215 91.1693C136.177 91.1926 136.132 91.2033 136.09 91.2033C136.007 91.2012 135.926 91.1587 135.882 91.0822ZM137.807 89.9374C137.737 89.8205 137.778 89.6697 137.892 89.6017L138.856 89.0282C138.973 88.9603 139.124 88.9985 139.192 89.1132C139.262 89.23 139.221 89.3808 139.107 89.4488L138.143 90.0223C138.105 90.0457 138.06 90.0563 138.018 90.0563C137.935 90.0563 137.852 90.0138 137.807 89.9374ZM139.731 88.7925C139.661 88.6757 139.699 88.5249 139.816 88.4569L140.778 87.8855C140.894 87.8154 141.045 87.8537 141.113 87.9705C141.183 88.0873 141.143 88.2381 141.028 88.3061L140.066 88.8775C140.026 88.9008 139.984 88.9114 139.941 88.9114C139.858 88.9136 139.778 88.8689 139.731 88.7925ZM141.659 87.6476C141.589 87.5308 141.629 87.3821 141.744 87.312L142.708 86.7406C142.824 86.6727 142.973 86.7109 143.043 86.8256C143.113 86.9424 143.073 87.0932 142.958 87.1612L141.994 87.7326C141.956 87.756 141.911 87.7666 141.869 87.7666C141.784 87.7687 141.703 87.7262 141.659 87.6476ZM143.582 86.5027C143.512 86.3859 143.553 86.2351 143.667 86.1672L144.629 85.5936C144.746 85.5235 144.896 85.5618 144.964 85.6786C145.034 85.7954 144.994 85.9462 144.879 86.0142L143.916 86.5877C143.877 86.6111 143.833 86.6217 143.79 86.6217C143.71 86.6238 143.629 86.5813 143.582 86.5027ZM145.508 85.3579C145.438 85.241 145.478 85.0903 145.593 85.0223L146.557 84.4509C146.674 84.3829 146.822 84.419 146.892 84.5359C146.962 84.6527 146.924 84.8013 146.807 84.8714L145.846 85.4428C145.805 85.4662 145.763 85.4768 145.72 85.4768C145.635 85.4789 145.555 85.4365 145.508 85.3579ZM147.436 84.213C147.366 84.0962 147.404 83.9475 147.521 83.8774L148.482 83.306C148.599 83.2359 148.75 83.2763 148.818 83.391C148.888 83.5078 148.848 83.6586 148.733 83.7266L147.769 84.3001C147.731 84.3235 147.686 84.3341 147.644 84.3341C147.561 84.3341 147.48 84.2916 147.436 84.213ZM149.359 83.0703C149.289 82.9534 149.33 82.8026 149.444 82.7347L150.408 82.1633C150.525 82.0932 150.676 82.1336 150.744 82.2483C150.814 82.3651 150.773 82.5159 150.659 82.5838L149.697 83.1552C149.659 83.1786 149.614 83.1892 149.572 83.1892C149.487 83.1892 149.406 83.1467 149.359 83.0703Z" fill="#F7F7FB"/>
<path d="M151.497 82.0444C151.54 82.0444 151.582 82.0338 151.623 82.0104L152.113 81.7194C152.187 81.6748 152.234 81.5941 152.232 81.507C152.232 81.4199 152.185 81.3392 152.109 81.2967L151.614 81.01C151.497 80.942 151.346 80.9823 151.279 81.0992C151.211 81.216 151.251 81.3668 151.368 81.4348L151.501 81.5112L151.37 81.5899C151.253 81.66 151.215 81.8086 151.285 81.9254C151.332 82.0019 151.412 82.0444 151.497 82.0444Z" fill="#F7F7FB"/>
<path d="M150.385 80.8613L149.397 80.29C149.281 80.222 149.24 80.0733 149.308 79.9543C149.376 79.8375 149.525 79.7972 149.644 79.8651L150.631 80.4365C150.748 80.5045 150.788 80.6553 150.72 80.7721C150.676 80.8507 150.593 80.8953 150.508 80.8953C150.465 80.8953 150.423 80.8847 150.385 80.8613ZM148.41 79.7186L147.423 79.1472C147.306 79.0792 147.266 78.9284 147.334 78.8116C147.402 78.6948 147.553 78.6544 147.669 78.7224L148.657 79.2937C148.773 79.3617 148.814 79.5104 148.746 79.6294C148.701 79.708 148.618 79.7525 148.533 79.7525C148.491 79.7525 148.448 79.7419 148.41 79.7186ZM146.438 78.5758L145.451 78.0044C145.334 77.9365 145.293 77.7857 145.361 77.6689C145.429 77.552 145.578 77.5117 145.697 77.5797L146.684 78.151C146.801 78.219 146.841 78.3677 146.773 78.4866C146.727 78.5652 146.646 78.6098 146.561 78.6098C146.519 78.6098 146.476 78.5992 146.438 78.5758ZM144.463 77.4352L143.476 76.8638C143.359 76.7959 143.319 76.6471 143.387 76.5282C143.455 76.4114 143.606 76.371 143.722 76.439L144.71 77.0104C144.826 77.0784 144.867 77.227 144.799 77.346C144.754 77.4246 144.671 77.4692 144.586 77.4692C144.544 77.4671 144.504 77.4564 144.463 77.4352ZM142.491 76.2924L141.504 75.7211C141.387 75.6531 141.347 75.5044 141.415 75.3855C141.482 75.2686 141.631 75.2283 141.75 75.2963L142.737 75.8677C142.854 75.9356 142.894 76.0864 142.826 76.2032C142.782 76.2818 142.699 76.3264 142.614 76.3264C142.572 76.3243 142.529 76.3137 142.491 76.2924ZM140.519 75.1497L139.531 74.5783C139.415 74.5103 139.374 74.3595 139.442 74.2427C139.51 74.1259 139.659 74.0856 139.778 74.1535L140.765 74.7249C140.882 74.7928 140.922 74.9416 140.854 75.0605C140.809 75.1391 140.727 75.1816 140.642 75.1816C140.599 75.1837 140.557 75.1731 140.519 75.1497ZM138.544 74.007L137.557 73.4356C137.44 73.3676 137.4 73.2168 137.468 73.1C137.536 72.9832 137.684 72.9428 137.803 73.0108L138.79 73.5821C138.907 73.6501 138.947 73.7988 138.88 73.9178C138.835 73.9964 138.752 74.0409 138.667 74.0409C138.625 74.0409 138.584 74.0303 138.544 74.007ZM136.572 72.8642L135.584 72.2928C135.468 72.2249 135.427 72.0762 135.495 71.9573C135.563 71.8404 135.714 71.8 135.831 71.868L136.818 72.4394C136.935 72.5074 136.975 72.656 136.907 72.775C136.863 72.8536 136.78 72.8982 136.695 72.8982C136.652 72.8982 136.61 72.8876 136.572 72.8642ZM134.597 71.7236L133.61 71.1522C133.493 71.0843 133.453 70.9355 133.521 70.8166C133.589 70.6998 133.739 70.6594 133.856 70.7274L134.843 71.2988C134.96 71.3668 135.001 71.5176 134.933 71.6344C134.888 71.713 134.805 71.7576 134.72 71.7576C134.678 71.7555 134.638 71.7448 134.597 71.7236ZM132.625 70.5808L131.638 70.0094C131.521 69.9415 131.48 69.7928 131.548 69.6739C131.616 69.557 131.765 69.5167 131.884 69.5847L132.871 70.156C132.988 70.224 133.028 70.3727 132.96 70.4916C132.916 70.5702 132.833 70.6148 132.748 70.6148C132.705 70.6127 132.663 70.6021 132.625 70.5808ZM130.652 69.4381L129.665 68.8667C129.548 68.7987 129.508 68.6479 129.576 68.5311C129.644 68.4143 129.795 68.374 129.911 68.4419L130.899 69.0133C131.015 69.0812 131.056 69.23 130.988 69.3489C130.943 69.4275 130.861 69.4721 130.776 69.4721C130.733 69.4699 130.691 69.4593 130.652 69.4381ZM128.678 68.2954L127.691 67.724C127.574 67.656 127.534 67.5073 127.601 67.3884C127.669 67.2716 127.818 67.2312 127.937 67.2991L128.924 67.8705C129.041 67.9385 129.081 68.0872 129.013 68.2061C128.969 68.2847 128.886 68.3293 128.801 68.3293C128.759 68.3293 128.718 68.3187 128.678 68.2954ZM126.706 67.1526L125.718 66.5812C125.601 66.5133 125.561 66.3646 125.629 66.2457C125.697 66.1288 125.846 66.0884 125.965 66.1564L126.952 66.7278C127.069 66.7958 127.109 66.9444 127.041 67.0634C126.996 67.142 126.914 67.1866 126.829 67.1866C126.786 67.1866 126.744 67.1759 126.706 67.1526ZM124.731 66.0098L123.744 65.4385C123.627 65.3705 123.587 65.2197 123.655 65.1029C123.723 64.986 123.873 64.9457 123.99 65.0137L124.977 65.5851C125.094 65.653 125.134 65.8038 125.066 65.9206C125.022 65.9992 124.939 66.0417 124.854 66.0417C124.814 66.0439 124.771 66.0332 124.731 66.0098ZM122.759 64.8671L121.771 64.2958C121.655 64.2278 121.614 64.0791 121.682 63.9601C121.75 63.8433 121.899 63.803 122.018 63.8709L123.005 64.4423C123.122 64.5103 123.162 64.659 123.094 64.7779C123.047 64.8565 122.967 64.9011 122.882 64.9011C122.839 64.9011 122.797 64.8905 122.759 64.8671ZM120.786 63.7265L119.799 63.1551C119.682 63.0871 119.642 62.9364 119.71 62.8195C119.778 62.7027 119.926 62.6624 120.045 62.7303L121.033 63.3017C121.149 63.3696 121.19 63.5204 121.122 63.6373C121.077 63.7158 120.994 63.7605 120.909 63.7605C120.867 63.7584 120.824 63.7478 120.786 63.7265ZM118.812 62.5838L117.825 62.0124C117.708 61.9444 117.667 61.7957 117.735 61.6768C117.803 61.56 117.952 61.5196 118.071 61.5875L119.058 62.1589C119.175 62.2269 119.215 62.3777 119.147 62.4945C119.103 62.5731 119.02 62.6177 118.935 62.6177C118.892 62.6156 118.852 62.605 118.812 62.5838ZM116.839 61.441L115.852 60.8696C115.735 60.8017 115.695 60.6529 115.763 60.534C115.831 60.4172 115.979 60.3768 116.098 60.4448L117.086 61.0162C117.202 61.0842 117.243 61.2328 117.175 61.3518C117.13 61.4304 117.047 61.475 116.963 61.475C116.92 61.4729 116.878 61.4622 116.839 61.441ZM114.867 60.2982L113.88 59.7269C113.763 59.6589 113.723 59.5081 113.791 59.3913C113.859 59.2744 114.007 59.2341 114.126 59.3021L115.113 59.8735C115.23 59.9414 115.27 60.0922 115.202 60.209C115.158 60.2876 115.075 60.3322 114.99 60.3322C114.948 60.3301 114.905 60.3216 114.867 60.2982ZM112.893 59.1555L111.905 58.5841C111.789 58.5161 111.748 58.3675 111.816 58.2485C111.884 58.1317 112.033 58.0914 112.152 58.1593L113.139 58.7307C113.256 58.7986 113.296 58.9474 113.228 59.0663C113.181 59.1449 113.101 59.1895 113.016 59.1895C112.973 59.1895 112.933 59.1789 112.893 59.1555ZM110.92 58.0128L109.933 57.4414C109.816 57.3734 109.776 57.2247 109.844 57.1058C109.912 56.989 110.062 56.9486 110.179 57.0166L111.166 57.5879C111.283 57.6559 111.324 57.8046 111.256 57.9236C111.211 58.0022 111.128 58.0467 111.043 58.0467C111.001 58.0467 110.958 58.0361 110.92 58.0128ZM108.946 56.8721L107.958 56.3008C107.842 56.2328 107.801 56.082 107.869 55.9651C107.937 55.8483 108.086 55.808 108.205 55.8759L109.192 56.4473C109.309 56.5153 109.349 56.6661 109.281 56.7829C109.236 56.8615 109.154 56.904 109.069 56.904C109.028 56.904 108.986 56.8934 108.946 56.8721ZM106.973 55.7294L105.986 55.158C105.869 55.0901 105.829 54.9413 105.897 54.8224C105.965 54.7056 106.116 54.6652 106.232 54.7332L107.22 55.3046C107.336 55.3726 107.377 55.5212 107.309 55.6402C107.262 55.7188 107.181 55.7633 107.096 55.7633C107.054 55.7612 107.011 55.7506 106.973 55.7294ZM105.001 54.5866L104.014 54.0152C103.897 53.9473 103.857 53.7986 103.924 53.6797C103.992 53.5628 104.141 53.5225 104.26 53.5905L105.247 54.1618C105.364 54.2298 105.404 54.3785 105.336 54.4975C105.292 54.576 105.209 54.6185 105.124 54.6185C105.082 54.6185 105.039 54.6079 105.001 54.5866ZM103.026 53.4439L102.039 52.8725C101.922 52.8045 101.882 52.6559 101.95 52.5369C102.018 52.4201 102.169 52.3798 102.285 52.4477L103.273 53.0191C103.389 53.087 103.43 53.2379 103.362 53.3547C103.317 53.4333 103.234 53.4779 103.149 53.4779C103.107 53.4758 103.067 53.4673 103.026 53.4439ZM101.054 52.3012L100.067 51.7298C99.9499 51.6618 99.9096 51.5131 99.9776 51.3942C100.045 51.2774 100.194 51.237 100.313 51.3049L101.3 51.8763C101.417 51.9443 101.457 52.093 101.389 52.2119C101.345 52.2905 101.262 52.3351 101.177 52.3351C101.135 52.3351 101.092 52.3245 101.054 52.3012ZM99.0816 51.1584L98.0944 50.587C97.9776 50.5191 97.9373 50.3683 98.0052 50.2515C98.0731 50.1346 98.2217 50.0942 98.3406 50.1622L99.3279 50.7336C99.4447 50.8016 99.485 50.9502 99.417 51.0692C99.3724 51.1478 99.2896 51.1924 99.2047 51.1924C99.1622 51.1924 99.1198 51.1817 99.0816 51.1584ZM97.1071 50.0156L96.1199 49.4443C96.0031 49.3763 95.9627 49.2276 96.0307 49.1087C96.0986 48.9918 96.2494 48.9515 96.3661 49.0195L97.3534 49.5909C97.4702 49.6588 97.5105 49.8075 97.4425 49.9265C97.398 50.005 97.3151 50.0497 97.2302 50.0497C97.1878 50.0497 97.1453 50.039 97.1071 50.0156ZM95.1347 48.8729L94.1475 48.3015C94.0307 48.2335 93.9904 48.0849 94.0583 47.9659C94.1262 47.8491 94.2748 47.8088 94.3937 47.8767L95.381 48.4481C95.4977 48.516 95.5381 48.6648 95.4702 48.7837C95.4256 48.8623 95.3428 48.9069 95.2579 48.9069C95.2154 48.9069 95.1729 48.8963 95.1347 48.8729Z" fill="#F7F7FB"/>
<path d="M92.2982 47.7726C92.3407 47.7726 92.3831 47.762 92.4235 47.7386L92.7908 47.5199L93.1602 47.7344C93.277 47.8023 93.4277 47.762 93.4957 47.6452C93.5636 47.5283 93.5233 47.3775 93.4065 47.3096L92.9118 47.0228C92.8354 46.9782 92.7398 46.9782 92.6634 47.0249L92.173 47.3181C92.0562 47.3882 92.018 47.539 92.0881 47.6537C92.1348 47.7301 92.2154 47.7726 92.2982 47.7726Z" fill="#F7F7FB"/>
<path d="M65.2456 63.7052C65.1756 63.5883 65.2138 63.4397 65.3306 63.3696L66.2881 62.796C66.4049 62.7259 66.5557 62.7642 66.6236 62.881C66.6937 62.9978 66.6554 63.1486 66.5386 63.2166L65.579 63.7901C65.5408 63.8135 65.4962 63.8241 65.4538 63.8241C65.3731 63.8262 65.2924 63.7816 65.2456 63.7052ZM67.1629 62.5603C67.0928 62.4435 67.131 62.2927 67.2478 62.2247L68.2074 61.6512C68.3242 61.5811 68.4749 61.6193 68.5429 61.7361C68.6129 61.853 68.5747 62.0016 68.4579 62.0717L67.4983 62.6453C67.458 62.6686 67.4155 62.6792 67.373 62.6792C67.2902 62.6792 67.2096 62.6368 67.1629 62.5603ZM69.08 61.4133C69.0099 61.2965 69.0482 61.1457 69.1649 61.0777L70.1246 60.5042C70.2414 60.4341 70.39 60.4723 70.4601 60.5891C70.5301 60.706 70.4919 60.8568 70.3751 60.9248L69.4176 61.4983C69.3772 61.5216 69.3348 61.5322 69.2923 61.5322C69.2074 61.5322 69.1267 61.4897 69.08 61.4133ZM70.9972 60.2663C70.9272 60.1495 70.9654 59.9987 71.0822 59.9307L72.0418 59.3572C72.1586 59.2871 72.3072 59.3254 72.3772 59.4422C72.4473 59.559 72.4091 59.7098 72.2923 59.7778L71.3326 60.3512C71.2923 60.3746 71.2499 60.3853 71.2074 60.3853C71.1246 60.3853 71.0439 60.3428 70.9972 60.2663ZM72.9144 59.1193C72.8443 59.0025 72.8825 58.8517 72.9993 58.7837L73.9568 58.2102C74.0736 58.1401 74.2244 58.1784 74.2923 58.2952C74.3624 58.412 74.3241 58.5607 74.2074 58.6308L73.2477 59.2043C73.2095 59.2277 73.1649 59.2383 73.1225 59.2383C73.0418 59.2383 72.9611 59.1958 72.9144 59.1193ZM74.8316 57.9723C74.7615 57.8555 74.7997 57.7047 74.9165 57.6367L75.8762 57.0632C75.9929 56.9931 76.1415 57.0313 76.2116 57.1482C76.2817 57.265 76.2434 57.4158 76.1266 57.4838L75.167 58.0573C75.1267 58.0806 75.0842 58.0912 75.0418 58.0912C74.959 58.0912 74.8783 58.0488 74.8316 57.9723ZM76.7509 56.8253C76.6808 56.7085 76.719 56.5598 76.8358 56.4897L77.7954 55.9162C77.9122 55.8461 78.0629 55.8843 78.1309 56.0012C78.2009 56.118 78.1628 56.2688 78.046 56.3368L77.0863 56.9103C77.046 56.9336 77.0035 56.9442 76.961 56.9442C76.8761 56.9442 76.7954 56.9018 76.7509 56.8253ZM78.6681 55.6783C78.598 55.5615 78.6362 55.4107 78.7529 55.3427L79.7126 54.7692C79.8294 54.6991 79.9801 54.7374 80.0481 54.8542C80.1182 54.971 80.0799 55.1197 79.9631 55.1898L79.0056 55.7633C78.9653 55.7866 78.9228 55.7973 78.8803 55.7973C78.7933 55.7994 78.7127 55.7569 78.6681 55.6783ZM80.5852 54.5313C80.5152 54.4145 80.5534 54.2658 80.6702 54.1957L81.6298 53.6222C81.7466 53.5521 81.8952 53.5904 81.9652 53.7072C82.0353 53.824 81.9971 53.9727 81.8804 54.0428L80.9206 54.6163C80.8824 54.6397 80.8379 54.6503 80.7954 54.6503C80.7126 54.6524 80.6298 54.6099 80.5852 54.5313ZM82.5024 53.3865C82.4324 53.2696 82.4705 53.121 82.5873 53.0509L83.5469 52.4773C83.6637 52.4072 83.8124 52.4455 83.8824 52.5623C83.9525 52.6791 83.9143 52.8299 83.7975 52.8979L82.8379 53.4714C82.7996 53.4948 82.7551 53.5075 82.7126 53.5075C82.6298 53.5054 82.547 53.4629 82.5024 53.3865ZM84.4196 52.2394C84.3495 52.1226 84.3877 51.9718 84.5045 51.9039L85.4642 51.3304C85.5809 51.2603 85.7317 51.2985 85.7996 51.4153C85.8697 51.5321 85.8315 51.6809 85.7147 51.751L84.755 52.3244C84.7168 52.3478 84.6722 52.3584 84.6298 52.3584C84.547 52.3584 84.4642 52.3159 84.4196 52.2394ZM86.3368 51.0925C86.2667 50.9757 86.3049 50.8269 86.4217 50.7569L87.3792 50.1834C87.496 50.1133 87.6467 50.1515 87.7147 50.2684C87.7847 50.3852 87.7465 50.536 87.6297 50.6039L86.6701 51.1774C86.6319 51.2008 86.5873 51.2114 86.5448 51.2114C86.4642 51.2114 86.3814 51.169 86.3368 51.0925ZM88.2539 49.9455C88.1839 49.8287 88.2221 49.6779 88.3389 49.6099L89.2985 49.0364C89.4153 48.9663 89.566 49.0045 89.6339 49.1213C89.704 49.2382 89.6658 49.389 89.5491 49.4569L88.5894 50.0305C88.5511 50.0538 88.5066 50.0644 88.4641 50.0644C88.3813 50.0644 88.3006 50.022 88.2539 49.9455ZM90.1711 48.7985C90.1011 48.6816 90.1393 48.5309 90.256 48.4629L91.2157 47.8894C91.3324 47.8193 91.4811 47.8575 91.5512 47.9743C91.6212 48.0912 91.583 48.2399 91.4662 48.31L90.5087 48.8835C90.4684 48.9068 90.4259 48.9174 90.3834 48.9174C90.2985 48.9174 90.2179 48.8749 90.1711 48.7985Z" fill="#F7F7FB"/>
<path d="M64.4982 64.9819C64.5831 64.9819 64.6638 64.9394 64.7105 64.8608C64.7784 64.744 64.7402 64.5931 64.6234 64.5251L64.4875 64.4444L64.6234 64.3637C64.7402 64.2936 64.7784 64.145 64.7084 64.0282C64.6383 63.9113 64.4876 63.8731 64.3729 63.9432L63.8824 64.2363C63.8081 64.2809 63.7635 64.3616 63.7635 64.4466C63.7635 64.5337 63.8103 64.6123 63.8846 64.6569L64.3771 64.9478C64.4132 64.9712 64.4578 64.9819 64.4982 64.9819Z" fill="#F7F7FB"/>
<path d="M78.0651 73.0044L77.0863 72.4288C76.9695 72.3608 76.9313 72.21 76.9993 72.0932C77.0672 71.9764 77.2179 71.9381 77.3347 72.0061L78.3135 72.5818C78.4302 72.6497 78.4685 72.8005 78.4005 72.9173C78.356 72.9938 78.2732 73.0384 78.1904 73.0384C78.1458 73.0384 78.1033 73.0278 78.0651 73.0044ZM76.1097 71.8553L75.1309 71.2797C75.0142 71.2117 74.976 71.0609 75.0439 70.944C75.1118 70.8272 75.2626 70.789 75.3793 70.857L76.356 71.4326C76.4727 71.5006 76.511 71.6514 76.443 71.7682C76.3963 71.8447 76.3156 71.8893 76.2307 71.8893C76.1904 71.8893 76.1479 71.8765 76.1097 71.8553ZM74.1543 70.7041L73.1756 70.1284C73.0588 70.0604 73.0205 69.9096 73.0885 69.7928C73.1564 69.676 73.3072 69.6378 73.424 69.7058L74.4006 70.2814C74.5174 70.3494 74.5555 70.5001 74.4876 70.617C74.4409 70.6956 74.3603 70.738 74.2753 70.738C74.235 70.7359 74.1925 70.7274 74.1543 70.7041ZM72.1968 69.5528L71.218 68.9772C71.1013 68.9092 71.063 68.7584 71.131 68.6416C71.1989 68.5248 71.3497 68.4865 71.4665 68.5545L72.4452 69.1302C72.562 69.1981 72.6002 69.3489 72.5322 69.4657C72.4855 69.5422 72.4048 69.5868 72.3199 69.5868C72.2796 69.5868 72.2371 69.574 72.1968 69.5528ZM70.2414 68.4016L69.2626 67.826C69.1458 67.758 69.1076 67.6072 69.1756 67.4904C69.2435 67.3735 69.3942 67.3353 69.511 67.4033L70.4876 67.9789C70.6044 68.0468 70.6427 68.1977 70.5747 68.3145C70.5301 68.391 70.4473 68.4355 70.3645 68.4355C70.3242 68.4355 70.2817 68.4249 70.2414 68.4016ZM68.286 67.2503L67.3072 66.6747C67.1905 66.6068 67.1523 66.4559 67.2202 66.3391C67.2881 66.2223 67.4389 66.1841 67.5556 66.252L68.5344 66.8276C68.6512 66.8956 68.6894 67.0464 68.6214 67.1632C68.5747 67.2397 68.4941 67.2843 68.4092 67.2843C68.3688 67.2843 68.3263 67.2737 68.286 67.2503ZM66.3306 66.0991L65.3519 65.5234C65.2351 65.4555 65.1968 65.3047 65.2648 65.1879C65.3327 65.071 65.4835 65.0328 65.6003 65.1008L66.579 65.6764C66.6958 65.7444 66.734 65.8952 66.666 66.012C66.6193 66.0885 66.5386 66.1331 66.4537 66.1331C66.4134 66.1331 66.3688 66.1225 66.3306 66.0991Z" fill="#F7F7FB"/>
<path d="M79.1669 74.1917C79.2093 74.1917 79.2518 74.1811 79.29 74.1577L79.7847 73.8689C79.859 73.8243 79.9057 73.7435 79.9057 73.6586C79.9057 73.5715 79.859 73.4908 79.7847 73.4462L79.2921 73.1552C79.1753 73.0872 79.0246 73.1254 78.9567 73.2422C78.8887 73.3591 78.927 73.5099 79.0437 73.5779L79.1753 73.6564L79.0437 73.7329C78.927 73.8009 78.8866 73.9517 78.9545 74.0685C78.9991 74.1492 79.0819 74.1917 79.1669 74.1917Z" fill="#F7F7FB"/>
<path d="M67.1881 80.9377C67.1202 80.8209 67.1606 80.6701 67.2752 80.6021L68.256 80.0308C68.3728 79.9628 68.5236 80.001 68.5915 80.12C68.6595 80.2368 68.6212 80.3876 68.5045 80.4555L67.5236 81.0269C67.4853 81.0503 67.4429 81.0609 67.4005 81.0609C67.3155 81.0588 67.2348 81.0163 67.1881 80.9377ZM69.1499 79.7929C69.082 79.6761 69.1223 79.5253 69.2391 79.4573L70.22 78.8859C70.3367 78.8179 70.4875 78.8561 70.5554 78.9751C70.6233 79.0919 70.5851 79.2428 70.4662 79.3107L69.4853 79.8821C69.4471 79.9054 69.4046 79.916 69.3622 79.916C69.2773 79.9139 69.1945 79.8715 69.1499 79.7929ZM71.1096 78.648C71.0416 78.5312 71.0819 78.3804 71.1987 78.3124L72.1796 77.7389C72.2964 77.6709 72.4471 77.7113 72.515 77.8281C72.583 77.9449 72.5427 78.0958 72.4259 78.1637L71.445 78.7351C71.4068 78.7584 71.3643 78.7691 71.3218 78.7691C71.239 78.7691 71.1563 78.7266 71.1096 78.648ZM73.0713 77.5031C73.0034 77.3863 73.0437 77.2355 73.1604 77.1675L74.1413 76.5961C74.2581 76.5282 74.4089 76.5685 74.4768 76.6853C74.5448 76.8022 74.5044 76.953 74.3876 77.021L73.4067 77.5923C73.3685 77.6157 73.3261 77.6264 73.2836 77.6264C73.1987 77.6264 73.1159 77.5817 73.0713 77.5031ZM75.0331 76.3604C74.9651 76.2436 75.0033 76.0927 75.1222 76.0247L76.1031 75.4534C76.2199 75.3854 76.3706 75.4237 76.4386 75.5426C76.5065 75.6594 76.4662 75.8102 76.3494 75.8782L75.3685 76.4496C75.3303 76.473 75.2879 76.4836 75.2454 76.4836C75.1605 76.4814 75.0777 76.4369 75.0331 76.3604ZM76.9927 75.2155C76.9248 75.0987 76.9651 74.9478 77.0819 74.8799L78.0628 74.3085C78.1795 74.2406 78.3303 74.2788 78.3982 74.3977C78.4661 74.5146 78.4279 74.6653 78.3091 74.7333L77.3282 75.3047C77.2899 75.3281 77.2475 75.3387 77.205 75.3387C77.1201 75.3366 77.0394 75.2941 76.9927 75.2155Z" fill="#F7F7FB"/>
<path d="M65.9269 81.9191C65.9694 81.9191 66.0118 81.9084 66.05 81.885L66.5447 81.5962C66.6615 81.5282 66.7019 81.3774 66.634 81.2606C66.566 81.1438 66.4152 81.1034 66.2985 81.1713L65.8059 81.4602C65.6891 81.5282 65.6488 81.679 65.7168 81.7958C65.7592 81.8744 65.842 81.9191 65.9269 81.9191Z" fill="#F7F7FB"/>
<path d="M64.5744 80.8931C65.3218 80.4619 66.5319 80.4619 67.2771 80.8931C68.0245 81.3243 68.0245 82.0231 67.2771 82.4542C66.5298 82.8854 65.3196 82.8854 64.5744 82.4542C63.8271 82.0231 63.8271 81.3243 64.5744 80.8931Z" fill="#F7F7FB"/>
<path d="M150.232 112.185C150.979 111.754 152.189 111.754 152.934 112.185C153.682 112.616 153.682 113.315 152.934 113.746C152.187 114.177 150.977 114.177 150.232 113.746C149.484 113.315 149.484 112.614 150.232 112.185Z" fill="#F7F7FB"/>
<path d="M172.397 91.951V95.6192L176.518 98.0046L176.648 97.533L176.48 91.951H172.397Z" fill="#C6C6C6"/>
<path d="M202.979 74.0132L202.981 77.6814L207.087 80.0625L207.231 79.5973L207.061 74.0132H202.979Z" fill="#C6C6C6"/>
<path d="M145.699 87.6476V88.3911L139.788 91.8384V91.095L145.699 87.6476Z" fill="#DBDDDF"/>
<path d="M172.76 94.3576C172.183 94.022 171.401 94.0305 170.537 94.4511C170.444 94.4957 170.348 94.5466 170.253 94.6019C168.996 95.3283 167.894 96.7239 167.272 98.2256C166.932 99.0476 166.737 99.8993 166.739 100.692C166.743 101.805 167.136 102.586 167.766 102.954L170.153 104.343C169.52 103.975 169.127 103.192 169.125 102.081C169.123 101.288 169.319 100.435 169.658 99.6147C170.278 98.1151 171.38 96.7174 172.639 95.9931C172.735 95.9379 172.83 95.887 172.924 95.8424C173.79 95.4218 174.569 95.4111 175.149 95.7467L172.76 94.3576Z" fill="#14191E"/>
<path d="M172.639 95.991C174.586 94.8674 176.17 95.7701 176.176 98.0067C176.183 100.243 174.609 102.971 172.662 104.094C170.715 105.218 169.132 104.315 169.125 102.079C169.121 99.842 170.694 97.1147 172.639 95.991Z" fill="#1C232A"/>
<path d="M172.639 95.991C174.586 94.8674 176.17 95.7701 176.176 98.0067C176.183 100.243 174.609 102.971 172.662 104.094C170.715 105.218 169.132 104.315 169.125 102.079C169.121 99.842 170.694 97.1147 172.639 95.991Z" fill="#1C232A"/>
<path d="M172.643 97.3716C173.928 96.6303 174.972 97.2251 174.977 98.7013C174.979 100.178 173.945 101.977 172.658 102.718C171.376 103.459 170.331 102.864 170.327 101.388C170.323 99.9099 171.359 98.1129 172.643 97.3716Z" fill="#C2C2C2"/>
<path d="M173.013 97.7816C173.013 97.9897 172.866 98.2425 172.688 98.3466C172.508 98.4506 172.361 98.3657 172.361 98.1575C172.361 97.9494 172.505 97.6966 172.688 97.5926C172.866 97.4885 173.013 97.5734 173.013 97.7816Z" fill="#263137"/>
<path d="M172.093 98.3742C172.185 98.5016 172.129 98.7629 171.974 98.9584C171.819 99.1516 171.62 99.2047 171.531 99.0773C171.439 98.9499 171.495 98.6885 171.65 98.4931C171.805 98.2977 172.004 98.2446 172.093 98.3742Z" fill="#263137"/>
<path d="M171.325 99.4001C171.482 99.4128 171.535 99.6125 171.446 99.844C171.354 100.076 171.155 100.254 171 100.239C170.845 100.224 170.79 100.027 170.881 99.793C170.968 99.5636 171.17 99.3873 171.325 99.4001Z" fill="#263137"/>
<path d="M170.911 100.587C171.091 100.483 171.238 100.566 171.238 100.774C171.238 100.982 171.091 101.235 170.911 101.339C170.732 101.443 170.584 101.361 170.584 101.152C170.586 100.944 170.732 100.692 170.911 100.587Z" fill="#263137"/>
<path d="M170.966 101.618C171.121 101.424 171.321 101.371 171.412 101.499C171.501 101.626 171.448 101.887 171.293 102.081C171.138 102.274 170.938 102.329 170.849 102.2C170.756 102.074 170.809 101.811 170.966 101.618Z" fill="#263137"/>
<path d="M171.469 102.214C171.56 101.983 171.76 101.805 171.915 101.819C172.07 101.834 172.123 102.032 172.034 102.265C171.945 102.497 171.743 102.675 171.588 102.661C171.433 102.646 171.38 102.446 171.469 102.214Z" fill="#263137"/>
<path d="M172.291 102.217C172.291 102.008 172.437 101.756 172.618 101.652C172.798 101.547 172.945 101.632 172.945 101.841C172.945 102.049 172.798 102.302 172.618 102.406C172.437 102.508 172.291 102.425 172.291 102.217Z" fill="#263137"/>
<path d="M173.21 101.624C173.121 101.494 173.174 101.235 173.329 101.04C173.486 100.847 173.684 100.793 173.775 100.921C173.864 101.048 173.813 101.31 173.656 101.505C173.499 101.698 173.299 101.751 173.21 101.624Z" fill="#263137"/>
<path d="M173.977 100.596C173.822 100.581 173.766 100.384 173.858 100.152C173.949 99.9184 174.146 99.742 174.304 99.7569C174.459 99.7718 174.512 99.9694 174.422 100.203C174.333 100.435 174.134 100.611 173.977 100.596Z" fill="#263137"/>
<path d="M174.391 99.4086C174.212 99.5127 174.066 99.4277 174.066 99.2196C174.066 99.0114 174.212 98.7587 174.391 98.6546C174.571 98.5505 174.717 98.6354 174.717 98.8436C174.717 99.0517 174.571 99.3045 174.391 99.4086Z" fill="#263137"/>
<path d="M174.34 98.3785C174.182 98.5718 173.983 98.627 173.894 98.4974C173.805 98.37 173.858 98.1088 174.015 97.9133C174.17 97.7201 174.369 97.667 174.458 97.7944C174.548 97.924 174.495 98.1852 174.34 98.3785Z" fill="#263137"/>
<path d="M173.834 97.7838C173.743 98.0153 173.544 98.1937 173.389 98.1788C173.234 98.164 173.178 97.9643 173.27 97.7327C173.359 97.5012 173.558 97.3229 173.716 97.3377C173.87 97.3526 173.924 97.5522 173.834 97.7838Z" fill="#263137"/>
<path d="M172.648 98.6907C173.297 98.3148 173.826 98.6164 173.828 99.364C173.83 100.112 173.306 101.023 172.654 101.397C172.004 101.773 171.474 101.471 171.474 100.723C171.471 99.9758 171.998 99.0646 172.648 98.6907Z" fill="#263137"/>
<path d="M172.65 99.1771C173.066 98.9371 173.403 99.1304 173.406 99.6083C173.406 100.086 173.072 100.668 172.656 100.908C172.24 101.148 171.902 100.955 171.9 100.477C171.898 100.001 172.234 99.4171 172.65 99.1771Z" fill="#14191E"/>
<path d="M172.76 94.3576C172.183 94.022 171.401 94.0305 170.537 94.4511C170.444 94.4957 170.348 94.5466 170.253 94.6019C168.996 95.3283 167.894 96.7239 167.272 98.2256C166.932 99.0476 166.737 99.8993 166.739 100.692C166.743 101.805 167.136 102.586 167.766 102.954L170.153 104.343C169.52 103.975 169.127 103.192 169.125 102.081C169.123 101.288 169.319 100.435 169.658 99.6147C170.278 98.1151 171.38 96.7174 172.639 95.9931C172.735 95.9379 172.83 95.887 172.924 95.8424C173.79 95.4218 174.569 95.4111 175.149 95.7467L172.76 94.3576Z" fill="#14191E"/>
<path d="M203.418 75.806C202.841 75.4704 202.059 75.4789 201.195 75.8995C201.102 75.9462 201.006 75.9951 200.911 76.0503C199.652 76.7767 198.552 78.1722 197.93 79.6739C197.59 80.496 197.395 81.3477 197.397 82.14C197.399 83.2509 197.792 84.0346 198.425 84.4021L200.811 85.7913C200.178 85.4238 199.785 84.64 199.783 83.5291C199.781 82.7368 199.979 81.8829 200.316 81.0631C200.936 79.5635 202.038 78.1659 203.297 77.4394C203.393 77.3842 203.488 77.3353 203.582 77.2886C204.448 76.868 205.227 76.8574 205.807 77.193L203.418 75.806Z" fill="#14191E"/>
<path d="M203.297 77.4394C205.244 76.3158 206.828 77.2185 206.834 79.4551C206.841 81.6939 205.267 84.4191 203.32 85.5448C201.374 86.6685 199.79 85.7657 199.783 83.5291C199.777 81.2903 201.35 78.5651 203.297 77.4394Z" fill="#1C232A"/>
<path d="M203.301 78.82C204.586 78.0787 205.631 78.6735 205.633 80.1497C205.637 81.6259 204.601 83.425 203.314 84.1663C202.032 84.9076 200.987 84.3129 200.983 82.8366C200.981 81.3583 202.017 79.5613 203.301 78.82Z" fill="#C2C2C2"/>
<path d="M203.668 79.23C203.668 79.4381 203.522 79.691 203.344 79.795C203.163 79.8991 203.017 79.8141 203.017 79.606C203.017 79.3978 203.163 79.145 203.344 79.041C203.522 78.939 203.668 79.0218 203.668 79.23Z" fill="#263137"/>
<path d="M202.749 79.8226C202.841 79.9501 202.786 80.2113 202.631 80.4067C202.476 80.6 202.276 80.6531 202.185 80.5257C202.093 80.3982 202.149 80.137 202.304 79.9416C202.463 79.7483 202.66 79.693 202.749 79.8226Z" fill="#263137"/>
<path d="M201.983 80.8486C202.138 80.8613 202.193 81.0609 202.102 81.2946C202.013 81.5261 201.811 81.7045 201.656 81.6897C201.501 81.6748 201.448 81.4772 201.537 81.2436C201.626 81.012 201.826 80.8358 201.983 80.8486Z" fill="#263137"/>
<path d="M201.569 82.038C201.749 81.9339 201.896 82.0167 201.896 82.227C201.896 82.4352 201.749 82.6879 201.569 82.792C201.389 82.8961 201.242 82.8133 201.242 82.603C201.242 82.3927 201.391 82.14 201.569 82.038Z" fill="#263137"/>
<path d="M201.622 83.0661C201.777 82.8728 201.977 82.8197 202.068 82.9471C202.157 83.0745 202.104 83.3358 201.949 83.5291C201.792 83.7224 201.594 83.7777 201.503 83.6481C201.414 83.5206 201.467 83.2615 201.622 83.0661Z" fill="#263137"/>
<path d="M202.127 83.6629C202.219 83.4292 202.416 83.2529 202.573 83.2678C202.728 83.2827 202.781 83.4802 202.692 83.7139C202.601 83.9454 202.401 84.1238 202.246 84.1089C202.091 84.094 202.036 83.8944 202.127 83.6629Z" fill="#263137"/>
<path d="M202.949 83.6651C202.949 83.457 203.095 83.2042 203.276 83.1001C203.456 82.996 203.603 83.081 203.603 83.2891C203.601 83.4973 203.456 83.7501 203.276 83.8541C203.095 83.9582 202.949 83.8733 202.949 83.6651Z" fill="#263137"/>
<path d="M203.866 83.0725C203.777 82.945 203.83 82.6837 203.987 82.4905C204.144 82.2972 204.342 82.2419 204.431 82.3715C204.522 82.4989 204.469 82.7602 204.312 82.9556C204.155 83.1489 203.957 83.1999 203.866 83.0725Z" fill="#263137"/>
<path d="M204.635 82.0465C204.48 82.0317 204.425 81.8341 204.516 81.6026C204.607 81.3689 204.805 81.1926 204.962 81.2075C205.117 81.2223 205.172 81.4199 205.081 81.6536C204.991 81.883 204.79 82.0593 204.635 82.0465Z" fill="#263137"/>
<path d="M205.047 80.8591C204.868 80.9632 204.722 80.8783 204.722 80.6701C204.722 80.462 204.868 80.2092 205.047 80.1051C205.227 80.0011 205.374 80.086 205.374 80.2942C205.374 80.5023 205.229 80.7551 205.047 80.8591Z" fill="#263137"/>
<path d="M204.996 79.829C204.838 80.0223 204.639 80.0775 204.55 79.948C204.461 79.8205 204.514 79.5593 204.671 79.3639C204.826 79.1706 205.025 79.1153 205.115 79.2449C205.206 79.3724 205.153 79.6357 204.996 79.829Z" fill="#263137"/>
<path d="M204.49 79.2321C204.401 79.4636 204.199 79.6421 204.044 79.6272C203.889 79.6123 203.834 79.4148 203.925 79.1812C204.015 78.9496 204.214 78.7712 204.369 78.7861C204.526 78.801 204.579 79.0006 204.49 79.2321Z" fill="#263137"/>
<path d="M203.306 80.1391C203.955 79.7631 204.484 80.0648 204.486 80.8124C204.488 81.5601 203.964 82.4713 203.312 82.8451C202.662 83.2211 202.134 82.9195 202.132 82.1718C202.129 81.4241 202.654 80.515 203.306 80.1391Z" fill="#263137"/>
<path d="M203.305 80.6255C203.722 80.3854 204.059 80.5787 204.061 81.0567C204.061 81.5346 203.728 82.1166 203.312 82.3566C202.896 82.5966 202.558 82.4033 202.556 81.9254C202.554 81.4496 202.889 80.8655 203.305 80.6255Z" fill="#14191E"/>
<path d="M183.155 70.7337C179.934 68.599 177.011 66.749 173.96 64.797L184.639 58.6839L189.815 55.7803L211.153 68.034L193.435 78.6501C192.641 77.9938 191.807 76.8 190.951 76.1649C188.295 74.1811 185.93 72.5753 183.155 70.7337Z" fill="#E6E6E6"/>
<path d="M140.911 86.8787L145.317 89.4127L156.643 95.9293L162.427 99.2556L176.641 87.8749L193.42 78.1126C192.626 77.4542 191.809 76.8043 190.953 76.1692C188.297 74.1832 185.93 72.5774 183.157 70.7358C179.936 68.6011 177.013 66.7511 173.962 64.7991L155.711 75.481L140.911 86.8787Z" fill="#E6E6E6"/>
<path d="M145.317 89.4127L156.644 95.9293L176.992 83.0575L162.762 74.9563L145.317 89.4127Z" fill="white"/>
<path d="M182.038 76.5239L163.2 65.5999L155.726 75.464L164.325 82.0953L176.641 87.8749L182.038 76.5239Z" fill="#22292B"/>
<path d="M181.091 76.8171L163.391 66.5557L156.745 75.3281L164.707 81.4688L176.293 86.9042L181.091 76.8171Z" fill="#263137"/>
<path d="M156.745 75.3281L163.391 66.5557L167.705 69.0558L156.79 75.3621L156.745 75.3281Z" fill="#374248"/>
<path d="M197.518 68.0362L178.677 57.1121L163.199 65.5999L182.038 76.5239L197.518 68.0362Z" fill="#E6E6E6"/>
<path d="M181.926 76.5239L176.641 87.8749L207.148 71.4304L197.403 68.0361L181.926 76.5239Z" fill="#E6E6E6"/>
<path d="M208.229 72.7877L197.488 69.0557L182.643 77.1951L177.639 87.8749L208.229 72.7877Z" fill="#181B1C"/>
<path d="M203.342 71.8637L197.554 69.8522L183.202 77.7219L179.002 85.7912L203.342 71.8637Z" fill="#22292B"/>
<path opacity="0.2" d="M194.42 71.5706C196.635 72.1271 198.851 72.6835 201.078 73.1593L199.269 74.1937C196.951 73.6861 194.63 73.1997 192.306 72.7281L194.42 71.5706Z" fill="#364248"/>
<path opacity="0.2" d="M187.514 75.3578C189.877 75.8145 192.233 76.3136 194.569 76.885L190.331 79.3086C188.002 78.716 185.658 78.1764 183.306 77.6645L187.514 75.3578Z" fill="#364248"/>
<path d="M162.427 99.2556L162.633 106.157L141.117 93.7734L140.911 86.8723L162.427 99.2556Z" fill="#E6E6E6"/>
<path d="M155.285 95.6298L147.652 91.3159V94.5296L155.285 98.8457V95.6298Z" fill="#C3C1C9"/>
<path d="M147.881 91.4518V94.4L155.285 98.5802V95.632L147.881 91.4518Z" fill="#303030"/>
<path d="M147.881 91.832V92.1018L155.285 96.2161V95.9442L147.881 91.832Z" fill="#595959"/>
<path d="M147.881 92.3163V92.5861L155.285 96.7004V96.4285L147.881 92.3163Z" fill="#595959"/>
<path d="M147.881 92.8771V93.1468L155.285 97.259V96.9893L147.881 92.8771Z" fill="#595959"/>
<path d="M147.881 93.4378V93.7076L155.285 97.8198V97.55L147.881 93.4378Z" fill="#595959"/>
<path d="M147.881 93.9985V94.2683L155.285 98.3805V98.1107L147.881 93.9985Z" fill="#595959"/>
<path d="M161.448 99.6423L157.136 97.1741V100.063L161.448 102.531V99.6423Z" fill="#E6E6E6"/>
<path d="M161.215 99.7783L157.37 97.5777V99.9291L161.215 102.13V99.7783Z" fill="#22292B"/>
<path d="M157.78 97.8114V99.7082L161.215 101.675V102.13L157.37 99.9291V97.5777L157.78 97.8114Z" fill="#CDD1D5"/>
<path d="M157.37 99.929L157.78 99.7081L161.215 101.675V102.13L157.37 99.929Z" fill="white"/>
<path d="M146.202 90.7148L141.89 88.2487V91.1353L146.202 93.6035V90.7148Z" fill="#E6E6E6"/>
<path d="M145.968 90.8507L142.124 88.6501V91.0015L145.968 93.202V90.8507Z" fill="#22292B"/>
<path d="M142.531 88.8838V90.7806L145.968 92.7475V93.202L142.124 91.0015V88.6501L142.531 88.8838Z" fill="#CDD1D5"/>
<path d="M142.124 91.0015L142.531 90.7806L145.968 92.7475V93.202L142.124 91.0015Z" fill="white"/>
<path d="M207.148 71.4304L197.403 68.034C197.403 68.034 178.469 56.9889 178.677 57.1099C178.885 57.231 184.641 58.6839 184.641 58.6839L207.148 71.4304Z" fill="#22292B"/>
<path d="M184.465 59.1235C184.2 59.0556 183.115 58.7816 181.953 58.4842C187.064 61.4643 196.892 67.1992 197.599 67.6113L202.412 69.2893L184.465 59.1235Z" fill="#263137"/>
<path d="M162.427 99.2556L162.635 106.157L168.221 102.877C168.202 102.705 168.191 102.529 168.191 102.344C168.189 101.15 168.584 99.8057 169.302 98.5589C170.021 97.3121 170.987 96.2968 172.026 95.6957C172.682 95.3176 173.321 95.1264 173.93 95.1264C174.697 95.1264 175.374 95.445 175.839 96.0206C176.242 96.5219 176.476 97.2038 176.52 98.0046L198.957 84.8396C198.841 84.4615 198.781 84.041 198.779 83.5843C198.777 82.3906 199.172 81.046 199.892 79.7992C200.611 78.5524 201.577 77.5371 202.616 76.936C203.272 76.5579 203.911 76.3667 204.518 76.3667C205.284 76.3667 205.964 76.6832 206.427 77.2609C206.875 77.8174 207.112 78.5927 207.114 79.5061C207.114 79.6887 207.106 79.8736 207.087 80.0605L209.953 78.3676L212.08 73.7796L211.987 73.1934L211.454 69.8819L211.157 68.0319L176.62 87.8707L162.427 99.2556Z" fill="#E6E6E6"/>
<path d="M162.427 99.2556L162.635 106.157L168.221 102.877C168.202 102.705 168.191 102.529 168.191 102.344C168.189 101.15 168.584 99.8058 169.302 98.559C170.021 97.3121 170.987 96.2968 172.026 95.6957C172.682 95.3176 173.321 95.1265 173.93 95.1265C174.697 95.1265 175.374 95.4451 175.839 96.0207C176.242 96.522 176.476 97.2038 176.52 98.0046L198.957 84.8397C198.841 84.4616 198.781 84.041 198.779 83.5843C198.777 82.3906 199.172 81.046 199.892 79.7992C200.611 78.5524 201.577 77.5371 202.616 76.936C203.272 76.5579 203.911 76.3667 204.518 76.3667C205.284 76.3667 205.964 76.6832 206.427 77.261C206.875 77.8175 207.112 78.5928 207.114 79.5061C207.114 79.6888 207.106 79.8736 207.087 80.0605L209.953 78.3676L212.08 73.7797L211.987 73.1934L211.454 69.882L162.427 99.2556Z" fill="#CCCCCC"/>
<path d="M162.637 106.994L139.788 93.646V91.0908L162.637 104.432V106.994Z" fill="#E6E6E6"/>
<path d="M162.637 104.432L164.187 103.514V106.076L162.637 106.994V104.432Z" fill="#CDD1D5"/>
<path d="M141.036 91.0908L162.637 103.689L163.563 103.141L164.187 103.514L162.637 104.432L139.788 91.095L141.036 91.0908Z" fill="white"/>
<path opacity="0.2" d="M163.391 66.5557L164.478 67.1865C162.298 69.3212 160.287 71.8552 160.724 75.0455C161.104 77.8217 175.652 85.7593 176.68 86.0907L176.293 86.9063L164.707 81.4708L156.743 75.3301L163.391 66.5557Z" fill="#263137"/>
<path d="M178.781 86.6939V93.9879L189.284 87.9216V80.6361L189.811 80.3323V87.6221L197.911 82.9449C198.015 81.6833 198.448 80.3621 199.165 79.1174C199.993 77.6836 201.123 76.5026 202.35 75.7953C202.611 75.6445 202.875 75.517 203.136 75.4108V72.6474L203.662 72.3437V75.7762L203.488 75.84C203.199 75.944 202.906 76.0821 202.613 76.2499C201.467 76.9126 200.403 78.0235 199.622 79.3786C198.926 80.583 198.501 81.9105 198.427 83.117L198.418 83.2571L189.289 88.5291V88.5227L178.259 94.8928V86.9913L178.781 86.6939Z" fill="#C6C6C6"/>
<path d="M189.811 73.6585V80.3323L189.285 80.6361V73.975L189.811 73.6585Z" fill="#181B1C"/>
<path d="M197.874 69.5357V75.6615L197.35 75.9631L197.348 69.5357H197.874Z" fill="#181B1C"/>
<path d="M165.667 97.994L164.433 98.7204L164.187 98.5717L165.42 97.8431L165.667 97.994Z" fill="white"/>
<path d="M165.667 97.994V98.9795L164.433 99.706V98.7204L165.667 97.994Z" fill="#E6E6E6"/>
<path d="M164.433 98.7204V99.706L164.187 99.5551V98.5717L164.433 98.7204Z" fill="#4F4F4F"/>
<g opacity="0.3">
<path d="M176.028 58.5649C181.017 60.3066 185.968 62.161 190.86 64.1746L197.518 68.0361L195.898 68.924C195.698 68.8624 195.499 68.7987 195.297 68.7349C187.219 66.1924 179.493 63.5862 171.505 61.0458L176.028 58.5649Z" fill="white"/>
<path d="M163.2 65.5998L164.499 64.8861C172.722 67.2842 180.845 70.0391 188.991 72.7111L183.957 75.4703C181.174 74.4911 178.361 73.6033 175.533 72.7515L163.2 65.5998Z" fill="white"/>
</g>
<path d="M169.48 72.8705L171.467 74.0302C171.633 74.1279 171.845 74.0451 171.902 73.8603L172.151 73.0914C172.193 72.9533 172.138 72.8046 172.013 72.7324L171.185 72.2397L171.59 71.3433L171.289 71.1691L170.883 72.0612L170.028 71.5557C169.864 71.458 169.652 71.5387 169.592 71.7213L169.34 72.5073C169.297 72.6475 169.357 72.7962 169.48 72.8705Z" fill="#22292B"/>
<path d="M188.206 82.4479V83.7796L186.302 84.9266V83.5949L188.204 82.4479H188.206Z" fill="#E6E6E6"/>
<path d="M187.998 83.6437V82.569L188.204 82.4479H188.206V83.7796L186.302 84.9266V84.6696L187.998 83.6437Z" fill="white"/>
<path d="M187.998 82.569V83.6437L188.206 83.7796L188.204 82.4479L187.998 82.569Z" fill="#E6E6E6"/>
<path d="M202.552 73.718V75.0498L200.65 76.1968V74.865L202.552 73.718Z" fill="#E6E6E6"/>
<path d="M202.346 74.9118V73.837L202.552 73.718V75.0498L200.65 76.1968V75.9377L202.346 74.9118Z" fill="white"/>
<path d="M202.346 73.837V74.9118L202.552 75.0498V73.718L202.346 73.837Z" fill="#E6E6E6"/>
<path d="M163.213 87.2844L163.306 87.3396L163.599 87.5074L166.928 85.583L167.024 85.5277L166.637 85.3047L163.213 87.2844Z" fill="#1A1C1F"/>
<path d="M163.306 87.3396L163.599 87.5074L166.928 85.583L166.637 85.4152L163.306 87.3396Z" fill="#131519"/>
<path d="M162.1 86.6578L162.193 86.713L162.486 86.8809L165.815 84.9564L165.911 84.9033L165.525 84.6803L162.1 86.6578Z" fill="#1A1C1F"/>
<path d="M162.193 86.713L162.486 86.8809L165.815 84.9565L165.524 84.7886L162.193 86.713Z" fill="#131519"/>
<path d="M160.92 85.9803L161.015 86.0355L161.306 86.2033L164.637 84.2789L164.731 84.2237L164.344 84.0006L160.92 85.9803Z" fill="#1A1C1F"/>
<path d="M161.015 86.0355L161.306 86.2033L164.637 84.2789L164.344 84.1111L161.015 86.0355Z" fill="#131519"/>
<path d="M159.807 85.3535L159.9 85.4088L160.193 85.5766L163.522 83.6522L163.618 83.5991L163.232 83.376L159.807 85.3535Z" fill="#1A1C1F"/>
<path d="M159.9 85.4088L160.193 85.5767L163.522 83.6523L163.232 83.4845L159.9 85.4088Z" fill="#131519"/>
<path d="M158.69 84.6803L158.786 84.7355L159.077 84.9034L162.408 82.979L162.501 82.9259L162.115 82.7028L158.69 84.6803Z" fill="#1A1C1F"/>
<path d="M158.786 84.7355L159.077 84.9033L162.408 82.9789L162.115 82.8111L158.786 84.7355Z" fill="#131519"/>
<path d="M157.578 84.0558L157.671 84.1089L157.964 84.2789L161.293 82.3544L161.389 82.2992L161.002 82.0762L157.578 84.0558Z" fill="#1A1C1F"/>
<path d="M157.671 84.1089L157.964 84.2789L161.293 82.3545L161.002 82.1866L157.671 84.1089Z" fill="#131519"/>
<path d="M156.397 83.3761L156.493 83.4313L156.784 83.5991L160.115 81.6747L160.208 81.6216L159.822 81.3986L156.397 83.3761Z" fill="#1A1C1F"/>
<path d="M156.493 83.4313L156.784 83.5991L160.115 81.6747L159.822 81.507L156.493 83.4313Z" fill="#131519"/>
<path d="M155.285 82.7495L155.38 82.8048L155.671 82.9747L159.002 81.0503L159.096 80.9951L158.709 80.772L155.285 82.7495Z" fill="#1A1C1F"/>
<path d="M155.38 82.8048L155.671 82.9747L159.002 81.0503L158.709 80.8825L155.38 82.8048Z" fill="#131519"/>
<path opacity="0.3" d="M175.868 82.9194C173.452 76.1882 168.442 71.3645 162.762 67.3883L163.393 66.5557L181.091 76.817L176.344 86.798C176.493 85.5066 176.336 84.1875 175.868 82.9194Z" fill="#263137"/>
<path d="M209.08 71.6513L210.354 74.0706L211.985 73.1976L211.452 69.8862L209.08 71.6513Z" fill="#181B1C"/>
<path d="M187.631 36.6977L191.856 34.2423C190.49 35.0367 188.599 34.9241 186.512 33.7198L182.287 36.1752C184.374 37.3774 186.265 37.49 187.631 36.6977Z" fill="#66AD04"/>
<path d="M182.287 36.1731L186.512 33.7177C182.368 31.3238 179.011 25.5188 179.024 20.7545C179.03 18.3671 179.879 16.6912 181.245 15.918L177.019 18.3756C175.654 19.1487 174.805 20.8225 174.799 23.2121C174.788 27.9742 178.143 33.7793 182.287 36.1731Z" fill="#66AD04"/>
<path d="M182.357 11.8568L186.582 9.40141C182.902 7.29859 179.599 7.10954 177.21 8.49868L172.985 10.9541C175.374 9.56497 178.677 9.75399 182.357 11.8568Z" fill="#66AD04"/>
<path d="M195.522 34.7521C195.522 49.9753 182.644 55.5169 182.342 55.6444C182.331 55.6189 182.287 55.5552 182.234 55.4554C180.979 53.4481 169.124 34.2296 169.1 19.6607C169.075 11.1474 174.956 7.6257 182.359 11.8568C189.612 16.0667 195.497 26.2771 195.522 34.7521ZM182.287 36.1731C186.431 38.5669 189.805 36.6489 189.818 31.8867C189.832 27.1161 186.48 21.3089 182.336 18.9151C180.264 17.7192 178.387 17.6024 177.022 18.3756C175.656 19.1487 174.807 20.8225 174.801 23.2121C174.788 27.9742 178.143 33.7793 182.287 36.1731Z" fill="#66AD04"/>
<path d="M183.973 54.8012L188.198 52.3457C191.728 50.2918 199.747 44.3083 199.747 32.2967C199.722 23.8217 193.837 13.6113 186.582 9.40143L182.357 11.8568C189.612 16.0667 195.497 26.2771 195.522 34.7521C195.522 46.7637 187.503 52.7472 183.973 54.8012Z" fill="#66AD04"/>
<path d="M172.491 21.9313C172.491 25.0367 173.58 28.4798 175.346 31.532C177.104 34.5886 179.548 37.2564 182.236 38.8091C187.618 41.9187 191.981 39.3974 191.981 33.1888C191.981 26.9717 187.618 19.4121 182.236 16.3046C176.854 13.1929 172.491 15.7142 172.491 21.9313ZM174.76 23.2418C174.76 20.8544 175.599 19.1785 176.951 18.3947C178.306 17.6194 180.176 17.7341 182.236 18.9236C186.361 21.3068 189.711 27.1033 189.711 31.8782C189.711 36.6425 186.361 38.5712 182.236 36.188C178.11 33.8048 174.76 28.0061 174.76 23.2418Z" fill="#66AD04"/>
<path d="M178.325 62.9257C178.325 59.8224 180.839 57.3076 183.941 57.3076C187.043 57.3076 189.556 59.8224 189.556 62.9257C189.556 66.0289 187.043 68.5439 183.941 68.5439C180.839 68.5439 178.325 66.0289 178.325 62.9257Z" fill="#7BCE05"/>
<path d="M187.631 36.6977L191.856 34.2423C190.49 35.0367 188.599 34.9241 186.512 33.7198L182.287 36.1752C184.374 37.3774 186.265 37.49 187.631 36.6977Z" fill="#66AD04"/>
<path d="M182.287 36.1731L186.512 33.7177C182.368 31.3238 179.011 25.5188 179.024 20.7545C179.03 18.3671 179.879 16.6912 181.245 15.918L177.019 18.3756C175.654 19.1487 174.805 20.8225 174.799 23.2121C174.788 27.9742 178.143 33.7793 182.287 36.1731Z" fill="#66AD04"/>
<path d="M182.357 11.8568L186.582 9.40141C182.902 7.29859 179.599 7.10954 177.21 8.49868L172.985 10.9541C175.374 9.56497 178.677 9.75399 182.357 11.8568Z" fill="#66AD04"/>
<path d="M195.522 34.7521C195.522 49.9753 182.644 55.5169 182.342 55.6444C182.331 55.6189 182.287 55.5552 182.234 55.4554C180.979 53.4481 169.124 34.2296 169.1 19.6607C169.075 11.1474 174.956 7.6257 182.359 11.8568C189.612 16.0667 195.497 26.2771 195.522 34.7521ZM182.287 36.1731C186.431 38.5669 189.805 36.6489 189.818 31.8867C189.832 27.1161 186.48 21.3089 182.336 18.9151C180.264 17.7192 178.387 17.6024 177.022 18.3756C175.656 19.1487 174.807 20.8225 174.801 23.2121C174.788 27.9742 178.143 33.7793 182.287 36.1731Z" fill="#7BCE05"/>
<path d="M183.973 54.8012L188.198 52.3457C191.728 50.2918 199.747 44.3083 199.747 32.2967C199.722 23.8217 193.837 13.6113 186.582 9.40143L182.357 11.8568C189.612 16.0667 195.497 26.2771 195.522 34.7521C195.522 46.7637 187.503 52.7472 183.973 54.8012Z" fill="#66AD04"/>
<path d="M179.954 61.1754C179.954 60.0051 180.903 59.0578 182.07 59.0578C183.24 59.0578 184.187 60.0072 184.187 61.1754C184.187 62.3458 183.238 63.2932 182.07 63.2932C180.903 63.2932 179.954 62.3458 179.954 61.1754Z" fill="#9DED2E"/>
</svg>
