<svg width="249" height="156" viewBox="0 0 249 156" fill="none" xmlns="http://www.w3.org/2000/svg">
<path d="M248.951 80.2919C249.031 82.3013 226.664 72.69 226.664 72.69C226.651 71.9338 226.114 71.1415 225.068 70.5765L121.17 9.19319C119.058 8.08868 115.697 8.214 113.648 9.47782L89.2217 24.8751C89.1453 23.0378 89.0689 21.2451 89.0052 19.6351C88.9924 19.2166 88.7058 18.7642 88.1092 18.4562C86.9309 17.8148 85.0689 17.8785 83.9097 18.6113L66.464 29.6225C65.9077 29.9729 65.5935 30.4254 65.6063 30.8778L65.9481 39.5354L16.5897 65.2026C15.56 65.8164 15.0845 66.63 15.1121 67.469L15.3986 75.0731L4.10155 69.0047C1.50285 67.624 0.122777 65.7124 0.0505905 63.7179C0.203455 68.0191 -0.110747 70.5255 0.0442409 74.7779C0.107935 76.7703 1.47947 78.7011 4.08879 80.0796L129.75 153.113C135.039 155.936 143.514 155.639 148.58 152.427L245.216 97.0147C247.793 95.4111 249.016 93.3401 248.953 91.3519C248.776 87.0635 249.123 84.5507 248.951 80.2919Z" fill="#E6E6E6"/>
<path d="M225.068 70.5765L121.171 9.19319C119.058 8.08868 115.697 8.214 113.648 9.47782L16.5876 65.2047C14.5516 66.4473 14.6238 68.4482 16.7065 69.5633L120.627 130.94C122.72 132.051 126.119 131.936 128.134 130.654L225.189 74.9627C227.229 73.701 227.195 71.7172 225.068 70.5765Z" fill="#5EA59D"/>
<path d="M16.7043 73.1508L66.742 102.705L72.3852 106.038L90.3298 116.637H90.332L92.6356 117.996L120.625 134.526C122.718 135.637 126.117 135.52 128.132 134.239L130.257 133.02L135.983 129.734L156.847 117.763L159.183 116.422L225.188 78.5481C227.229 77.2843 227.195 75.3047 225.07 74.1619L222.331 72.5434L216.687 69.2086L176.798 45.6421L171.157 42.3095L121.172 12.7786C119.062 11.6741 115.699 11.7994 113.65 13.0611L16.5896 68.788C14.5493 70.0349 14.6215 72.0378 16.7043 73.1508Z" fill="#8ACAC2"/>
<path d="M92.0371 84.7079L72.1752 96.1821L59.5767 88.9051L79.4406 77.4308L92.0371 84.7079Z" fill="#5EA59D"/>
<path d="M73.8906 73.1849L54.0267 84.659L37.2795 74.9839L57.1434 63.5118L73.8906 73.1849Z" fill="#5EA59D"/>
<path d="M118.319 69.5272L98.455 81.0014L85.8585 73.7243L105.722 62.2501L118.319 69.5272Z" fill="#5EA59D"/>
<path d="M162.299 80.1113L142.435 68.6393L155.032 61.3622L174.896 72.8365L162.299 80.1113Z" fill="#5EA59D"/>
<path d="M131.009 121.773L111.147 110.299L123.744 103.021L143.608 114.496L131.009 121.773Z" fill="#5EA59D"/>
<path d="M179.922 69.9329L160.06 58.4587L172.656 51.1838L192.518 62.6558L179.922 69.9329Z" fill="#5EA59D"/>
<path d="M102.344 60.3002L82.4805 71.7723L69.884 64.4973L89.7459 53.0232L102.344 60.3002Z" fill="#5EA59D"/>
<path d="M98.6633 32.1033L88.3258 38.0761L81.7675 34.2889L92.107 28.316L98.6633 32.1033Z" fill="#5EA59D"/>
<path d="M83.9563 48.8112L37.963 75.379L25.3644 68.102L71.3598 41.5342L83.9563 48.8112Z" fill="#5EA59D"/>
<path d="M142.969 82.8982L96.9733 109.464L84.3768 102.189L130.372 75.6212L142.969 82.8982Z" fill="#5EA59D"/>
<path d="M160.075 45.4084L131.941 61.6575L111.846 50.0495L139.977 33.8004L160.075 45.4084Z" fill="#5EA59D"/>
<path d="M66.7419 102.705L72.3852 106.04L131.115 72.0676L136.82 68.7689L176.796 45.6463L171.153 42.3137L167.909 44.1893L165.582 45.538L131.113 65.4723L125.408 68.7731L99.6227 83.6883L97.2958 85.035L66.7419 102.705Z" fill="#5EA59D"/>
<path d="M173.431 96.5113L71.4192 37.5856L77.1261 34.289L179.138 93.2126L173.431 96.5113Z" fill="#5EA59D"/>
<path d="M96.8733 113.742L98.4211 114.636L130.255 133.024L135.981 129.736L104.111 111.329L102.58 110.445L96.8733 113.742Z" fill="#5EA59D"/>
<path d="M171.435 95.3494L173.435 96.5049L177.142 98.648L222.329 72.5476L216.685 69.2128L195.588 81.3985L193.259 82.7431L177.138 92.0571L171.435 95.3494Z" fill="#5EA59D"/>
<path d="M61.3047 64.2468L77.3555 73.5162L79.6867 74.8628L82.0242 73.5205L79.6931 72.1759L63.6359 62.9001L61.3047 64.2468Z" fill="#5EA59D"/>
<path d="M89.3659 80.3832C90.1239 79.9626 90.8797 79.5294 91.6143 79.0621L102.742 85.4895L100.412 86.8362L89.3043 80.4193C89.3234 80.4066 89.3447 80.3938 89.3659 80.3832Z" fill="#5EA59D"/>
<path d="M150.733 68.3058L174.595 82.0888L176.926 80.7443L153.064 66.9612L150.733 68.3058Z" fill="#5EA59D"/>
<path d="M184.609 75.0583L199.486 83.6522L197.157 84.9989L182.312 76.4241C183.106 76.0184 183.877 75.5659 184.609 75.0583Z" fill="#5EA59D"/>
<path d="M169.053 57.7237L192.915 71.5068L195.244 70.1623L171.382 56.3792L169.053 57.7237Z" fill="#5EA59D"/>
<path d="M64.5978 65.0348L94.107 47.9892L91.778 46.6446L62.2666 63.6903L64.5978 65.0348Z" fill="#5EA59D"/>
<path d="M90.3341 116.639L92.6355 117.998L98.4211 114.636L104.111 111.329L124.839 99.2789L127.16 97.9302L151.45 83.8137L152.057 83.4589L149.731 82.1144L149.121 82.4691L90.3341 116.639Z" fill="#5EA59D"/>
<path d="M124.092 98.8499L124.839 99.2789L156.845 117.767L159.181 116.427L127.16 97.9302L126.421 97.5032L124.092 98.8499Z" fill="#5EA59D"/>
<path d="M167.354 46.5597L116.4 17.1286L118.729 15.782L169.684 45.2151L167.354 46.5597Z" fill="#5EA59D"/>
<path d="M165.431 88.5927L202.008 67.4668L199.677 66.1201L163.102 87.2482L165.431 88.5927Z" fill="#5EA59D"/>
<path d="M48.8994 89.8247L51.2306 91.1714L79.6868 74.8628L82.0244 73.5204L79.6932 72.1759L77.3556 73.5161L48.8994 89.8247Z" fill="#5EA59D"/>
<path d="M121.053 29.7329C115.93 26.7741 107.627 26.7741 102.504 29.7329C97.3806 32.6917 97.3806 37.4878 102.504 40.4488C107.627 43.4076 115.93 43.4076 121.053 40.4488C126.177 37.49 126.177 32.6917 121.053 29.7329Z" fill="#5EA59D"/>
<path d="M159.3 93.9581C154.177 90.9993 145.873 90.9993 140.75 93.9581C135.627 96.9169 135.627 101.713 140.75 104.672C145.873 107.631 154.177 107.631 159.3 104.672C164.423 101.713 164.423 96.9169 159.3 93.9581Z" fill="#5EA59D"/>
<path d="M100.385 2.64051C105.489 -0.590194 113.945 -0.898192 119.228 1.94805L244.889 74.9755C250.182 77.8366 250.307 82.741 245.229 85.9441L148.591 141.374C143.487 144.592 135.049 144.878 129.737 142.066L4.09729 69.0047C-1.15744 66.2094 -1.31241 61.2752 3.74275 58.053L100.385 2.64051ZM225.068 70.5766L121.17 9.19322C119.058 8.08871 115.697 8.21404 113.648 9.47785L16.5876 65.2048C14.5515 66.4473 14.6237 68.4482 16.7065 69.5633L120.627 130.94C122.72 132.051 126.119 131.936 128.134 130.654L225.189 74.9627C227.229 73.701 227.195 71.7172 225.068 70.5766Z" fill="white"/>
<path d="M224.647 107.718L235.354 101.01V93.4463L224.647 100.154V107.718Z" fill="#F8F9FC"/>
<path d="M233.174 99.7462L225.087 104.942V106.957L234.915 100.755V100.751L233.174 99.7462Z" fill="#4F4F4F"/>
<path d="M225.085 100.407V104.944L233.172 99.7483V95.2135L232.737 95.462L225.085 100.407Z" fill="#303030"/>
<path d="M225.085 101.089V104.298L232.737 99.3512V96.1439L225.085 101.089Z" fill="#181A1D"/>
<path d="M234.915 98.7416V94.2067L233.174 95.2114V99.7462L234.915 100.751V98.7416Z" fill="#404040"/>
<path d="M245.337 91.6089C245.337 93.9284 243.927 96.6196 242.191 97.6221C240.454 98.6268 239.044 97.5605 239.044 95.2432C239.044 92.9258 240.452 90.2325 242.191 89.2278C243.927 88.2253 245.337 89.2894 245.337 91.6089Z" fill="#303030"/>
<path d="M239.403 95.908C241.142 94.9055 242.549 92.2121 242.549 89.8948C242.549 89.6101 242.526 89.3446 242.486 89.0982C244.082 88.376 245.337 89.4254 245.337 91.6089C245.337 93.9284 243.927 96.6195 242.19 97.6221C240.668 98.5036 239.396 97.792 239.106 96.0397C239.205 95.9951 239.301 95.9675 239.403 95.908Z" fill="#4F4F4F"/>
<path d="M241.318 97.1379C243.055 96.1353 244.465 93.442 244.465 91.1246C244.465 90.12 244.189 89.3681 243.745 88.9008C244.692 89.0771 245.337 90.0499 245.337 91.6089C245.337 93.9284 243.927 96.6196 242.191 97.6221C241.208 98.1914 240.339 98.0788 239.762 97.4671C240.22 97.552 240.749 97.4671 241.318 97.1379Z" fill="#EBEBEB"/>
<path d="M182.032 116.677C184.616 116.76 187.176 116.169 189.061 115.056L200.494 108.372C202.505 107.193 203.651 105.481 203.641 103.676C203.63 101.868 202.52 100.243 200.516 99.1005C198.964 98.1808 196.889 97.6264 194.698 97.5542C192.125 97.4714 189.575 98.0597 187.707 99.1664L176.238 105.902C174.268 107.032 173.125 108.714 173.119 110.507C173.113 112.299 174.24 113.99 176.212 115.141C177.792 116.063 179.86 116.607 182.032 116.677Z" fill="#E6E6E6"/>
<path d="M199.705 107.019L188.263 113.708C185.14 115.556 180.104 115.594 176.998 113.791C173.905 111.983 173.905 109.047 177.028 107.255L188.501 100.517C191.618 98.6693 196.673 98.646 199.737 100.462C202.875 102.25 202.843 105.18 199.705 107.019Z" fill="white"/>
<path d="M34.6216 97.0912L19.1036 88.0469L19.2077 82.0592L34.7362 91.1035L34.6216 97.0912Z" fill="#E4EAEE"/>
<path d="M34.7361 91.1034L19.2076 82.0592L21.56 80.7062L37.0779 89.7611L34.7361 91.1034Z" fill="white"/>
<path d="M37.0779 89.761L36.9633 95.7488L34.6215 97.0912L34.7361 91.1034L37.0779 89.761Z" fill="#D0D8DD"/>
<path d="M14.73 85.532L7.96155 81.6428L8.0656 75.6551L14.8447 79.5442L14.73 85.532Z" fill="#E4EAEE"/>
<path d="M14.8447 79.5443L8.06555 75.6551L10.4179 74.3042L17.1865 78.2019L14.8447 79.5443Z" fill="white"/>
<path d="M17.1864 78.202L17.0739 84.1897L14.7299 85.5321L14.8446 79.5443L17.1864 78.202Z" fill="#D0D8DD"/>
<path d="M6.65783 62.7345C6.68755 63.189 7.00601 63.6436 7.58138 63.9771C8.85313 64.7035 10.8999 64.7035 12.1737 63.9771C12.4774 63.8093 12.7024 63.5969 12.8552 63.3866C13.3563 62.6899 13.127 61.8849 12.1737 61.3241C10.8999 60.5977 8.85525 60.5977 7.58138 61.3241C6.91472 61.7022 6.59626 62.2184 6.65783 62.7345Z" fill="#4F4F4F"/>
<path d="M6.65778 62.7345C6.6875 63.1891 7.00596 63.6436 7.58133 63.9771C8.85308 64.7035 10.8998 64.7035 12.1737 63.9771C12.4773 63.8093 12.7023 63.5969 12.8552 63.3866C12.8403 62.9469 12.5219 62.4924 11.9147 62.1419C10.6578 61.4155 8.59622 61.4155 7.33933 62.1419C7.03572 62.3097 6.80852 62.5221 6.65778 62.7345Z" fill="#16181D"/>
<path d="M49.9268 38.4075C50.0393 38.6539 50.2899 38.9046 50.6317 39.1127C51.7633 39.7988 53.6593 39.7818 54.8164 39.0894L72.6315 28.6538C72.9415 28.4669 73.175 28.246 73.3024 28.006C73.6846 27.3794 73.4638 26.6764 72.6167 26.1815C71.4702 25.5081 69.6039 25.5123 68.415 26.2196L50.6445 36.687C49.8271 37.1628 49.5808 37.8213 49.9268 38.4075Z" fill="#E1E3EA"/>
<path d="M49.9269 38.4076C50.0395 38.654 50.29 38.9046 50.6318 39.1128C51.7634 39.7988 53.6594 39.7819 54.8165 39.0894L72.6316 28.6539C72.9416 28.4669 73.1751 28.2461 73.3025 28.006C73.19 27.7299 72.9395 27.4793 72.5828 27.2712C71.4363 26.6 69.5701 26.602 68.3812 27.3093L50.6106 37.7767C50.2879 37.9637 50.0543 38.1697 49.9269 38.4076Z" fill="#E6E6E6"/>
</svg>
